<mxfile host="app.diagrams.net" agent="Mozilla/5.0 (Windows NT 10.0; Win64; x64) AppleWebKit/537.36 (KHTML, like Gecko) Chrome/131.0.0.0 Safari/537.36" version="25.0.3" pages="2">
  <diagram name="ERD" id="O89AqxLV9uhSzFRnyrTm">
    <mxGraphModel dx="1932" dy="586" grid="1" gridSize="10" guides="1" tooltips="1" connect="1" arrows="1" fold="1" page="1" pageScale="1" pageWidth="827" pageHeight="1169" math="0" shadow="0">
      <root>
        <mxCell id="0" />
        <mxCell id="1" parent="0" />
        <mxCell id="EqAMS2uMT9Ca-llQSgbX-1" value="Roles" style="shape=table;startSize=30;container=1;collapsible=1;childLayout=tableLayout;fixedRows=1;rowLines=0;fontStyle=1;align=center;resizeLast=1;html=1;" parent="1" vertex="1">
          <mxGeometry x="-260" y="20" width="180" height="60" as="geometry" />
        </mxCell>
        <mxCell id="EqAMS2uMT9Ca-llQSgbX-2" value="" style="shape=tableRow;horizontal=0;startSize=0;swimlaneHead=0;swimlaneBody=0;fillColor=none;collapsible=0;dropTarget=0;points=[[0,0.5],[1,0.5]];portConstraint=eastwest;top=0;left=0;right=0;bottom=1;" parent="EqAMS2uMT9Ca-llQSgbX-1" vertex="1">
          <mxGeometry y="30" width="180" height="30" as="geometry" />
        </mxCell>
        <mxCell id="EqAMS2uMT9Ca-llQSgbX-3" value="PK" style="shape=partialRectangle;connectable=0;fillColor=none;top=0;left=0;bottom=0;right=0;fontStyle=1;overflow=hidden;whiteSpace=wrap;html=1;" parent="EqAMS2uMT9Ca-llQSgbX-2" vertex="1">
          <mxGeometry width="30" height="30" as="geometry">
            <mxRectangle width="30" height="30" as="alternateBounds" />
          </mxGeometry>
        </mxCell>
        <mxCell id="EqAMS2uMT9Ca-llQSgbX-4" value="name" style="shape=partialRectangle;connectable=0;fillColor=none;top=0;left=0;bottom=0;right=0;align=left;spacingLeft=6;fontStyle=5;overflow=hidden;whiteSpace=wrap;html=1;" parent="EqAMS2uMT9Ca-llQSgbX-2" vertex="1">
          <mxGeometry x="30" width="150" height="30" as="geometry">
            <mxRectangle width="150" height="30" as="alternateBounds" />
          </mxGeometry>
        </mxCell>
        <mxCell id="EqAMS2uMT9Ca-llQSgbX-14" value="Users" style="shape=table;startSize=30;container=1;collapsible=1;childLayout=tableLayout;fixedRows=1;rowLines=0;fontStyle=1;align=center;resizeLast=1;html=1;" parent="1" vertex="1">
          <mxGeometry x="280" width="180" height="300" as="geometry" />
        </mxCell>
        <mxCell id="EqAMS2uMT9Ca-llQSgbX-15" value="" style="shape=tableRow;horizontal=0;startSize=0;swimlaneHead=0;swimlaneBody=0;fillColor=none;collapsible=0;dropTarget=0;points=[[0,0.5],[1,0.5]];portConstraint=eastwest;top=0;left=0;right=0;bottom=1;" parent="EqAMS2uMT9Ca-llQSgbX-14" vertex="1">
          <mxGeometry y="30" width="180" height="30" as="geometry" />
        </mxCell>
        <mxCell id="EqAMS2uMT9Ca-llQSgbX-16" value="PK" style="shape=partialRectangle;connectable=0;fillColor=none;top=0;left=0;bottom=0;right=0;fontStyle=1;overflow=hidden;whiteSpace=wrap;html=1;" parent="EqAMS2uMT9Ca-llQSgbX-15" vertex="1">
          <mxGeometry width="30" height="30" as="geometry">
            <mxRectangle width="30" height="30" as="alternateBounds" />
          </mxGeometry>
        </mxCell>
        <mxCell id="EqAMS2uMT9Ca-llQSgbX-17" value="email" style="shape=partialRectangle;connectable=0;fillColor=none;top=0;left=0;bottom=0;right=0;align=left;spacingLeft=6;fontStyle=5;overflow=hidden;whiteSpace=wrap;html=1;" parent="EqAMS2uMT9Ca-llQSgbX-15" vertex="1">
          <mxGeometry x="30" width="150" height="30" as="geometry">
            <mxRectangle width="150" height="30" as="alternateBounds" />
          </mxGeometry>
        </mxCell>
        <mxCell id="EqAMS2uMT9Ca-llQSgbX-21" value="" style="shape=tableRow;horizontal=0;startSize=0;swimlaneHead=0;swimlaneBody=0;fillColor=none;collapsible=0;dropTarget=0;points=[[0,0.5],[1,0.5]];portConstraint=eastwest;top=0;left=0;right=0;bottom=0;" parent="EqAMS2uMT9Ca-llQSgbX-14" vertex="1">
          <mxGeometry y="60" width="180" height="30" as="geometry" />
        </mxCell>
        <mxCell id="EqAMS2uMT9Ca-llQSgbX-22" value="" style="shape=partialRectangle;connectable=0;fillColor=none;top=0;left=0;bottom=0;right=0;editable=1;overflow=hidden;whiteSpace=wrap;html=1;" parent="EqAMS2uMT9Ca-llQSgbX-21" vertex="1">
          <mxGeometry width="30" height="30" as="geometry">
            <mxRectangle width="30" height="30" as="alternateBounds" />
          </mxGeometry>
        </mxCell>
        <mxCell id="EqAMS2uMT9Ca-llQSgbX-23" value="password" style="shape=partialRectangle;connectable=0;fillColor=none;top=0;left=0;bottom=0;right=0;align=left;spacingLeft=6;overflow=hidden;whiteSpace=wrap;html=1;" parent="EqAMS2uMT9Ca-llQSgbX-21" vertex="1">
          <mxGeometry x="30" width="150" height="30" as="geometry">
            <mxRectangle width="150" height="30" as="alternateBounds" />
          </mxGeometry>
        </mxCell>
        <mxCell id="EqAMS2uMT9Ca-llQSgbX-24" value="" style="shape=tableRow;horizontal=0;startSize=0;swimlaneHead=0;swimlaneBody=0;fillColor=none;collapsible=0;dropTarget=0;points=[[0,0.5],[1,0.5]];portConstraint=eastwest;top=0;left=0;right=0;bottom=0;" parent="EqAMS2uMT9Ca-llQSgbX-14" vertex="1">
          <mxGeometry y="90" width="180" height="30" as="geometry" />
        </mxCell>
        <mxCell id="EqAMS2uMT9Ca-llQSgbX-25" value="" style="shape=partialRectangle;connectable=0;fillColor=none;top=0;left=0;bottom=0;right=0;editable=1;overflow=hidden;whiteSpace=wrap;html=1;" parent="EqAMS2uMT9Ca-llQSgbX-24" vertex="1">
          <mxGeometry width="30" height="30" as="geometry">
            <mxRectangle width="30" height="30" as="alternateBounds" />
          </mxGeometry>
        </mxCell>
        <mxCell id="EqAMS2uMT9Ca-llQSgbX-26" value="address" style="shape=partialRectangle;connectable=0;fillColor=none;top=0;left=0;bottom=0;right=0;align=left;spacingLeft=6;overflow=hidden;whiteSpace=wrap;html=1;" parent="EqAMS2uMT9Ca-llQSgbX-24" vertex="1">
          <mxGeometry x="30" width="150" height="30" as="geometry">
            <mxRectangle width="150" height="30" as="alternateBounds" />
          </mxGeometry>
        </mxCell>
        <mxCell id="EqAMS2uMT9Ca-llQSgbX-106" value="" style="shape=tableRow;horizontal=0;startSize=0;swimlaneHead=0;swimlaneBody=0;fillColor=none;collapsible=0;dropTarget=0;points=[[0,0.5],[1,0.5]];portConstraint=eastwest;top=0;left=0;right=0;bottom=0;" parent="EqAMS2uMT9Ca-llQSgbX-14" vertex="1">
          <mxGeometry y="120" width="180" height="30" as="geometry" />
        </mxCell>
        <mxCell id="EqAMS2uMT9Ca-llQSgbX-107" value="" style="shape=partialRectangle;connectable=0;fillColor=none;top=0;left=0;bottom=0;right=0;editable=1;overflow=hidden;whiteSpace=wrap;html=1;" parent="EqAMS2uMT9Ca-llQSgbX-106" vertex="1">
          <mxGeometry width="30" height="30" as="geometry">
            <mxRectangle width="30" height="30" as="alternateBounds" />
          </mxGeometry>
        </mxCell>
        <mxCell id="EqAMS2uMT9Ca-llQSgbX-108" value="phone" style="shape=partialRectangle;connectable=0;fillColor=none;top=0;left=0;bottom=0;right=0;align=left;spacingLeft=6;overflow=hidden;whiteSpace=wrap;html=1;" parent="EqAMS2uMT9Ca-llQSgbX-106" vertex="1">
          <mxGeometry x="30" width="150" height="30" as="geometry">
            <mxRectangle width="150" height="30" as="alternateBounds" />
          </mxGeometry>
        </mxCell>
        <mxCell id="SgVYNU1JQTBj0jb24-10-74" value="" style="shape=tableRow;horizontal=0;startSize=0;swimlaneHead=0;swimlaneBody=0;fillColor=none;collapsible=0;dropTarget=0;points=[[0,0.5],[1,0.5]];portConstraint=eastwest;top=0;left=0;right=0;bottom=0;" parent="EqAMS2uMT9Ca-llQSgbX-14" vertex="1">
          <mxGeometry y="150" width="180" height="30" as="geometry" />
        </mxCell>
        <mxCell id="SgVYNU1JQTBj0jb24-10-75" value="" style="shape=partialRectangle;connectable=0;fillColor=none;top=0;left=0;bottom=0;right=0;editable=1;overflow=hidden;whiteSpace=wrap;html=1;" parent="SgVYNU1JQTBj0jb24-10-74" vertex="1">
          <mxGeometry width="30" height="30" as="geometry">
            <mxRectangle width="30" height="30" as="alternateBounds" />
          </mxGeometry>
        </mxCell>
        <mxCell id="SgVYNU1JQTBj0jb24-10-76" value="fullname" style="shape=partialRectangle;connectable=0;fillColor=none;top=0;left=0;bottom=0;right=0;align=left;spacingLeft=6;overflow=hidden;whiteSpace=wrap;html=1;" parent="SgVYNU1JQTBj0jb24-10-74" vertex="1">
          <mxGeometry x="30" width="150" height="30" as="geometry">
            <mxRectangle width="150" height="30" as="alternateBounds" />
          </mxGeometry>
        </mxCell>
        <mxCell id="EqAMS2uMT9Ca-llQSgbX-109" value="" style="shape=tableRow;horizontal=0;startSize=0;swimlaneHead=0;swimlaneBody=0;fillColor=none;collapsible=0;dropTarget=0;points=[[0,0.5],[1,0.5]];portConstraint=eastwest;top=0;left=0;right=0;bottom=0;" parent="EqAMS2uMT9Ca-llQSgbX-14" vertex="1">
          <mxGeometry y="180" width="180" height="30" as="geometry" />
        </mxCell>
        <mxCell id="EqAMS2uMT9Ca-llQSgbX-110" value="" style="shape=partialRectangle;connectable=0;fillColor=none;top=0;left=0;bottom=0;right=0;editable=1;overflow=hidden;whiteSpace=wrap;html=1;" parent="EqAMS2uMT9Ca-llQSgbX-109" vertex="1">
          <mxGeometry width="30" height="30" as="geometry">
            <mxRectangle width="30" height="30" as="alternateBounds" />
          </mxGeometry>
        </mxCell>
        <mxCell id="EqAMS2uMT9Ca-llQSgbX-111" value="accessFailedCount" style="shape=partialRectangle;connectable=0;fillColor=none;top=0;left=0;bottom=0;right=0;align=left;spacingLeft=6;overflow=hidden;whiteSpace=wrap;html=1;" parent="EqAMS2uMT9Ca-llQSgbX-109" vertex="1">
          <mxGeometry x="30" width="150" height="30" as="geometry">
            <mxRectangle width="150" height="30" as="alternateBounds" />
          </mxGeometry>
        </mxCell>
        <mxCell id="SgVYNU1JQTBj0jb24-10-58" value="" style="shape=tableRow;horizontal=0;startSize=0;swimlaneHead=0;swimlaneBody=0;fillColor=none;collapsible=0;dropTarget=0;points=[[0,0.5],[1,0.5]];portConstraint=eastwest;top=0;left=0;right=0;bottom=0;" parent="EqAMS2uMT9Ca-llQSgbX-14" vertex="1">
          <mxGeometry y="210" width="180" height="30" as="geometry" />
        </mxCell>
        <mxCell id="SgVYNU1JQTBj0jb24-10-59" value="" style="shape=partialRectangle;connectable=0;fillColor=none;top=0;left=0;bottom=0;right=0;editable=1;overflow=hidden;whiteSpace=wrap;html=1;" parent="SgVYNU1JQTBj0jb24-10-58" vertex="1">
          <mxGeometry width="30" height="30" as="geometry">
            <mxRectangle width="30" height="30" as="alternateBounds" />
          </mxGeometry>
        </mxCell>
        <mxCell id="SgVYNU1JQTBj0jb24-10-60" value="lockoutEnd" style="shape=partialRectangle;connectable=0;fillColor=none;top=0;left=0;bottom=0;right=0;align=left;spacingLeft=6;overflow=hidden;whiteSpace=wrap;html=1;" parent="SgVYNU1JQTBj0jb24-10-58" vertex="1">
          <mxGeometry x="30" width="150" height="30" as="geometry">
            <mxRectangle width="150" height="30" as="alternateBounds" />
          </mxGeometry>
        </mxCell>
        <mxCell id="SgVYNU1JQTBj0jb24-10-61" value="" style="shape=tableRow;horizontal=0;startSize=0;swimlaneHead=0;swimlaneBody=0;fillColor=none;collapsible=0;dropTarget=0;points=[[0,0.5],[1,0.5]];portConstraint=eastwest;top=0;left=0;right=0;bottom=0;" parent="EqAMS2uMT9Ca-llQSgbX-14" vertex="1">
          <mxGeometry y="240" width="180" height="30" as="geometry" />
        </mxCell>
        <mxCell id="SgVYNU1JQTBj0jb24-10-62" value="" style="shape=partialRectangle;connectable=0;fillColor=none;top=0;left=0;bottom=0;right=0;editable=1;overflow=hidden;whiteSpace=wrap;html=1;" parent="SgVYNU1JQTBj0jb24-10-61" vertex="1">
          <mxGeometry width="30" height="30" as="geometry">
            <mxRectangle width="30" height="30" as="alternateBounds" />
          </mxGeometry>
        </mxCell>
        <mxCell id="SgVYNU1JQTBj0jb24-10-63" value="photo" style="shape=partialRectangle;connectable=0;fillColor=none;top=0;left=0;bottom=0;right=0;align=left;spacingLeft=6;overflow=hidden;whiteSpace=wrap;html=1;" parent="SgVYNU1JQTBj0jb24-10-61" vertex="1">
          <mxGeometry x="30" width="150" height="30" as="geometry">
            <mxRectangle width="150" height="30" as="alternateBounds" />
          </mxGeometry>
        </mxCell>
        <mxCell id="SgVYNU1JQTBj0jb24-10-66" value="" style="shape=tableRow;horizontal=0;startSize=0;swimlaneHead=0;swimlaneBody=0;fillColor=none;collapsible=0;dropTarget=0;points=[[0,0.5],[1,0.5]];portConstraint=eastwest;top=0;left=0;right=0;bottom=0;" parent="EqAMS2uMT9Ca-llQSgbX-14" vertex="1">
          <mxGeometry y="270" width="180" height="30" as="geometry" />
        </mxCell>
        <mxCell id="SgVYNU1JQTBj0jb24-10-67" value="" style="shape=partialRectangle;connectable=0;fillColor=none;top=0;left=0;bottom=0;right=0;editable=1;overflow=hidden;whiteSpace=wrap;html=1;" parent="SgVYNU1JQTBj0jb24-10-66" vertex="1">
          <mxGeometry width="30" height="30" as="geometry">
            <mxRectangle width="30" height="30" as="alternateBounds" />
          </mxGeometry>
        </mxCell>
        <mxCell id="SgVYNU1JQTBj0jb24-10-68" value="status" style="shape=partialRectangle;connectable=0;fillColor=none;top=0;left=0;bottom=0;right=0;align=left;spacingLeft=6;overflow=hidden;whiteSpace=wrap;html=1;" parent="SgVYNU1JQTBj0jb24-10-66" vertex="1">
          <mxGeometry x="30" width="150" height="30" as="geometry">
            <mxRectangle width="150" height="30" as="alternateBounds" />
          </mxGeometry>
        </mxCell>
        <mxCell id="EqAMS2uMT9Ca-llQSgbX-27" value="Categories" style="shape=table;startSize=30;container=1;collapsible=1;childLayout=tableLayout;fixedRows=1;rowLines=0;fontStyle=1;align=center;resizeLast=1;html=1;" parent="1" vertex="1">
          <mxGeometry x="600" width="180" height="60" as="geometry" />
        </mxCell>
        <mxCell id="EqAMS2uMT9Ca-llQSgbX-28" value="" style="shape=tableRow;horizontal=0;startSize=0;swimlaneHead=0;swimlaneBody=0;fillColor=none;collapsible=0;dropTarget=0;points=[[0,0.5],[1,0.5]];portConstraint=eastwest;top=0;left=0;right=0;bottom=1;" parent="EqAMS2uMT9Ca-llQSgbX-27" vertex="1">
          <mxGeometry y="30" width="180" height="30" as="geometry" />
        </mxCell>
        <mxCell id="EqAMS2uMT9Ca-llQSgbX-29" value="PK" style="shape=partialRectangle;connectable=0;fillColor=none;top=0;left=0;bottom=0;right=0;fontStyle=1;overflow=hidden;whiteSpace=wrap;html=1;" parent="EqAMS2uMT9Ca-llQSgbX-28" vertex="1">
          <mxGeometry width="30" height="30" as="geometry">
            <mxRectangle width="30" height="30" as="alternateBounds" />
          </mxGeometry>
        </mxCell>
        <mxCell id="EqAMS2uMT9Ca-llQSgbX-30" value="name" style="shape=partialRectangle;connectable=0;fillColor=none;top=0;left=0;bottom=0;right=0;align=left;spacingLeft=6;fontStyle=5;overflow=hidden;whiteSpace=wrap;html=1;" parent="EqAMS2uMT9Ca-llQSgbX-28" vertex="1">
          <mxGeometry x="30" width="150" height="30" as="geometry">
            <mxRectangle width="150" height="30" as="alternateBounds" />
          </mxGeometry>
        </mxCell>
        <mxCell id="EqAMS2uMT9Ca-llQSgbX-41" value="Foods" style="shape=table;startSize=30;container=1;collapsible=1;childLayout=tableLayout;fixedRows=1;rowLines=0;fontStyle=1;align=center;resizeLast=1;html=1;" parent="1" vertex="1">
          <mxGeometry x="600" y="90" width="180" height="300" as="geometry" />
        </mxCell>
        <mxCell id="EqAMS2uMT9Ca-llQSgbX-42" value="" style="shape=tableRow;horizontal=0;startSize=0;swimlaneHead=0;swimlaneBody=0;fillColor=none;collapsible=0;dropTarget=0;points=[[0,0.5],[1,0.5]];portConstraint=eastwest;top=0;left=0;right=0;bottom=1;" parent="EqAMS2uMT9Ca-llQSgbX-41" vertex="1">
          <mxGeometry y="30" width="180" height="30" as="geometry" />
        </mxCell>
        <mxCell id="EqAMS2uMT9Ca-llQSgbX-43" value="PK" style="shape=partialRectangle;connectable=0;fillColor=none;top=0;left=0;bottom=0;right=0;fontStyle=1;overflow=hidden;whiteSpace=wrap;html=1;" parent="EqAMS2uMT9Ca-llQSgbX-42" vertex="1">
          <mxGeometry width="30" height="30" as="geometry">
            <mxRectangle width="30" height="30" as="alternateBounds" />
          </mxGeometry>
        </mxCell>
        <mxCell id="EqAMS2uMT9Ca-llQSgbX-44" value="id" style="shape=partialRectangle;connectable=0;fillColor=none;top=0;left=0;bottom=0;right=0;align=left;spacingLeft=6;fontStyle=5;overflow=hidden;whiteSpace=wrap;html=1;" parent="EqAMS2uMT9Ca-llQSgbX-42" vertex="1">
          <mxGeometry x="30" width="150" height="30" as="geometry">
            <mxRectangle width="150" height="30" as="alternateBounds" />
          </mxGeometry>
        </mxCell>
        <mxCell id="EqAMS2uMT9Ca-llQSgbX-45" value="" style="shape=tableRow;horizontal=0;startSize=0;swimlaneHead=0;swimlaneBody=0;fillColor=none;collapsible=0;dropTarget=0;points=[[0,0.5],[1,0.5]];portConstraint=eastwest;top=0;left=0;right=0;bottom=0;" parent="EqAMS2uMT9Ca-llQSgbX-41" vertex="1">
          <mxGeometry y="60" width="180" height="30" as="geometry" />
        </mxCell>
        <mxCell id="EqAMS2uMT9Ca-llQSgbX-46" value="" style="shape=partialRectangle;connectable=0;fillColor=none;top=0;left=0;bottom=0;right=0;editable=1;overflow=hidden;whiteSpace=wrap;html=1;" parent="EqAMS2uMT9Ca-llQSgbX-45" vertex="1">
          <mxGeometry width="30" height="30" as="geometry">
            <mxRectangle width="30" height="30" as="alternateBounds" />
          </mxGeometry>
        </mxCell>
        <mxCell id="EqAMS2uMT9Ca-llQSgbX-47" value="name" style="shape=partialRectangle;connectable=0;fillColor=none;top=0;left=0;bottom=0;right=0;align=left;spacingLeft=6;overflow=hidden;whiteSpace=wrap;html=1;" parent="EqAMS2uMT9Ca-llQSgbX-45" vertex="1">
          <mxGeometry x="30" width="150" height="30" as="geometry">
            <mxRectangle width="150" height="30" as="alternateBounds" />
          </mxGeometry>
        </mxCell>
        <mxCell id="EqAMS2uMT9Ca-llQSgbX-48" value="" style="shape=tableRow;horizontal=0;startSize=0;swimlaneHead=0;swimlaneBody=0;fillColor=none;collapsible=0;dropTarget=0;points=[[0,0.5],[1,0.5]];portConstraint=eastwest;top=0;left=0;right=0;bottom=0;" parent="EqAMS2uMT9Ca-llQSgbX-41" vertex="1">
          <mxGeometry y="90" width="180" height="30" as="geometry" />
        </mxCell>
        <mxCell id="EqAMS2uMT9Ca-llQSgbX-49" value="" style="shape=partialRectangle;connectable=0;fillColor=none;top=0;left=0;bottom=0;right=0;editable=1;overflow=hidden;whiteSpace=wrap;html=1;" parent="EqAMS2uMT9Ca-llQSgbX-48" vertex="1">
          <mxGeometry width="30" height="30" as="geometry">
            <mxRectangle width="30" height="30" as="alternateBounds" />
          </mxGeometry>
        </mxCell>
        <mxCell id="EqAMS2uMT9Ca-llQSgbX-50" value="price" style="shape=partialRectangle;connectable=0;fillColor=none;top=0;left=0;bottom=0;right=0;align=left;spacingLeft=6;overflow=hidden;whiteSpace=wrap;html=1;" parent="EqAMS2uMT9Ca-llQSgbX-48" vertex="1">
          <mxGeometry x="30" width="150" height="30" as="geometry">
            <mxRectangle width="150" height="30" as="alternateBounds" />
          </mxGeometry>
        </mxCell>
        <mxCell id="SgVYNU1JQTBj0jb24-10-48" value="" style="shape=tableRow;horizontal=0;startSize=0;swimlaneHead=0;swimlaneBody=0;fillColor=none;collapsible=0;dropTarget=0;points=[[0,0.5],[1,0.5]];portConstraint=eastwest;top=0;left=0;right=0;bottom=0;" parent="EqAMS2uMT9Ca-llQSgbX-41" vertex="1">
          <mxGeometry y="120" width="180" height="30" as="geometry" />
        </mxCell>
        <mxCell id="SgVYNU1JQTBj0jb24-10-49" value="" style="shape=partialRectangle;connectable=0;fillColor=none;top=0;left=0;bottom=0;right=0;editable=1;overflow=hidden;whiteSpace=wrap;html=1;" parent="SgVYNU1JQTBj0jb24-10-48" vertex="1">
          <mxGeometry width="30" height="30" as="geometry">
            <mxRectangle width="30" height="30" as="alternateBounds" />
          </mxGeometry>
        </mxCell>
        <mxCell id="SgVYNU1JQTBj0jb24-10-50" value="quantity" style="shape=partialRectangle;connectable=0;fillColor=none;top=0;left=0;bottom=0;right=0;align=left;spacingLeft=6;overflow=hidden;whiteSpace=wrap;html=1;" parent="SgVYNU1JQTBj0jb24-10-48" vertex="1">
          <mxGeometry x="30" width="150" height="30" as="geometry">
            <mxRectangle width="150" height="30" as="alternateBounds" />
          </mxGeometry>
        </mxCell>
        <mxCell id="EqAMS2uMT9Ca-llQSgbX-51" value="" style="shape=tableRow;horizontal=0;startSize=0;swimlaneHead=0;swimlaneBody=0;fillColor=none;collapsible=0;dropTarget=0;points=[[0,0.5],[1,0.5]];portConstraint=eastwest;top=0;left=0;right=0;bottom=0;" parent="EqAMS2uMT9Ca-llQSgbX-41" vertex="1">
          <mxGeometry y="150" width="180" height="30" as="geometry" />
        </mxCell>
        <mxCell id="EqAMS2uMT9Ca-llQSgbX-52" value="" style="shape=partialRectangle;connectable=0;fillColor=none;top=0;left=0;bottom=0;right=0;editable=1;overflow=hidden;whiteSpace=wrap;html=1;" parent="EqAMS2uMT9Ca-llQSgbX-51" vertex="1">
          <mxGeometry width="30" height="30" as="geometry">
            <mxRectangle width="30" height="30" as="alternateBounds" />
          </mxGeometry>
        </mxCell>
        <mxCell id="EqAMS2uMT9Ca-llQSgbX-53" value="photo" style="shape=partialRectangle;connectable=0;fillColor=none;top=0;left=0;bottom=0;right=0;align=left;spacingLeft=6;overflow=hidden;whiteSpace=wrap;html=1;" parent="EqAMS2uMT9Ca-llQSgbX-51" vertex="1">
          <mxGeometry x="30" width="150" height="30" as="geometry">
            <mxRectangle width="150" height="30" as="alternateBounds" />
          </mxGeometry>
        </mxCell>
        <mxCell id="SgVYNU1JQTBj0jb24-10-52" value="" style="shape=tableRow;horizontal=0;startSize=0;swimlaneHead=0;swimlaneBody=0;fillColor=none;collapsible=0;dropTarget=0;points=[[0,0.5],[1,0.5]];portConstraint=eastwest;top=0;left=0;right=0;bottom=0;" parent="EqAMS2uMT9Ca-llQSgbX-41" vertex="1">
          <mxGeometry y="180" width="180" height="30" as="geometry" />
        </mxCell>
        <mxCell id="SgVYNU1JQTBj0jb24-10-53" value="" style="shape=partialRectangle;connectable=0;fillColor=none;top=0;left=0;bottom=0;right=0;editable=1;overflow=hidden;whiteSpace=wrap;html=1;" parent="SgVYNU1JQTBj0jb24-10-52" vertex="1">
          <mxGeometry width="30" height="30" as="geometry">
            <mxRectangle width="30" height="30" as="alternateBounds" />
          </mxGeometry>
        </mxCell>
        <mxCell id="SgVYNU1JQTBj0jb24-10-54" value="date" style="shape=partialRectangle;connectable=0;fillColor=none;top=0;left=0;bottom=0;right=0;align=left;spacingLeft=6;overflow=hidden;whiteSpace=wrap;html=1;" parent="SgVYNU1JQTBj0jb24-10-52" vertex="1">
          <mxGeometry x="30" width="150" height="30" as="geometry">
            <mxRectangle width="150" height="30" as="alternateBounds" />
          </mxGeometry>
        </mxCell>
        <mxCell id="EqAMS2uMT9Ca-llQSgbX-117" value="" style="shape=tableRow;horizontal=0;startSize=0;swimlaneHead=0;swimlaneBody=0;fillColor=none;collapsible=0;dropTarget=0;points=[[0,0.5],[1,0.5]];portConstraint=eastwest;top=0;left=0;right=0;bottom=0;" parent="EqAMS2uMT9Ca-llQSgbX-41" vertex="1">
          <mxGeometry y="210" width="180" height="30" as="geometry" />
        </mxCell>
        <mxCell id="EqAMS2uMT9Ca-llQSgbX-118" value="" style="shape=partialRectangle;connectable=0;fillColor=none;top=0;left=0;bottom=0;right=0;editable=1;overflow=hidden;whiteSpace=wrap;html=1;" parent="EqAMS2uMT9Ca-llQSgbX-117" vertex="1">
          <mxGeometry width="30" height="30" as="geometry">
            <mxRectangle width="30" height="30" as="alternateBounds" />
          </mxGeometry>
        </mxCell>
        <mxCell id="EqAMS2uMT9Ca-llQSgbX-119" value="description" style="shape=partialRectangle;connectable=0;fillColor=none;top=0;left=0;bottom=0;right=0;align=left;spacingLeft=6;overflow=hidden;whiteSpace=wrap;html=1;" parent="EqAMS2uMT9Ca-llQSgbX-117" vertex="1">
          <mxGeometry x="30" width="150" height="30" as="geometry">
            <mxRectangle width="150" height="30" as="alternateBounds" />
          </mxGeometry>
        </mxCell>
        <mxCell id="hSRlDZ0dCltx0tw_Xauo-1" value="" style="shape=tableRow;horizontal=0;startSize=0;swimlaneHead=0;swimlaneBody=0;fillColor=none;collapsible=0;dropTarget=0;points=[[0,0.5],[1,0.5]];portConstraint=eastwest;top=0;left=0;right=0;bottom=0;" parent="EqAMS2uMT9Ca-llQSgbX-41" vertex="1">
          <mxGeometry y="240" width="180" height="30" as="geometry" />
        </mxCell>
        <mxCell id="hSRlDZ0dCltx0tw_Xauo-2" value="" style="shape=partialRectangle;connectable=0;fillColor=none;top=0;left=0;bottom=0;right=0;editable=1;overflow=hidden;whiteSpace=wrap;html=1;" parent="hSRlDZ0dCltx0tw_Xauo-1" vertex="1">
          <mxGeometry width="30" height="30" as="geometry">
            <mxRectangle width="30" height="30" as="alternateBounds" />
          </mxGeometry>
        </mxCell>
        <mxCell id="hSRlDZ0dCltx0tw_Xauo-3" value="status" style="shape=partialRectangle;connectable=0;fillColor=none;top=0;left=0;bottom=0;right=0;align=left;spacingLeft=6;overflow=hidden;whiteSpace=wrap;html=1;" parent="hSRlDZ0dCltx0tw_Xauo-1" vertex="1">
          <mxGeometry x="30" width="150" height="30" as="geometry">
            <mxRectangle width="150" height="30" as="alternateBounds" />
          </mxGeometry>
        </mxCell>
        <mxCell id="EqAMS2uMT9Ca-llQSgbX-120" value="" style="shape=tableRow;horizontal=0;startSize=0;swimlaneHead=0;swimlaneBody=0;fillColor=none;collapsible=0;dropTarget=0;points=[[0,0.5],[1,0.5]];portConstraint=eastwest;top=0;left=0;right=0;bottom=0;" parent="EqAMS2uMT9Ca-llQSgbX-41" vertex="1">
          <mxGeometry y="270" width="180" height="30" as="geometry" />
        </mxCell>
        <mxCell id="EqAMS2uMT9Ca-llQSgbX-121" value="FK" style="shape=partialRectangle;connectable=0;fillColor=none;top=0;left=0;bottom=0;right=0;editable=1;overflow=hidden;whiteSpace=wrap;html=1;" parent="EqAMS2uMT9Ca-llQSgbX-120" vertex="1">
          <mxGeometry width="30" height="30" as="geometry">
            <mxRectangle width="30" height="30" as="alternateBounds" />
          </mxGeometry>
        </mxCell>
        <mxCell id="EqAMS2uMT9Ca-llQSgbX-122" value="categories" style="shape=partialRectangle;connectable=0;fillColor=none;top=0;left=0;bottom=0;right=0;align=left;spacingLeft=6;overflow=hidden;whiteSpace=wrap;html=1;" parent="EqAMS2uMT9Ca-llQSgbX-120" vertex="1">
          <mxGeometry x="30" width="150" height="30" as="geometry">
            <mxRectangle width="150" height="30" as="alternateBounds" />
          </mxGeometry>
        </mxCell>
        <mxCell id="EqAMS2uMT9Ca-llQSgbX-54" value="Reviews" style="shape=table;startSize=30;container=1;collapsible=1;childLayout=tableLayout;fixedRows=1;rowLines=0;fontStyle=1;align=center;resizeLast=1;html=1;" parent="1" vertex="1">
          <mxGeometry x="600" y="410" width="180" height="180" as="geometry" />
        </mxCell>
        <mxCell id="EqAMS2uMT9Ca-llQSgbX-55" value="" style="shape=tableRow;horizontal=0;startSize=0;swimlaneHead=0;swimlaneBody=0;fillColor=none;collapsible=0;dropTarget=0;points=[[0,0.5],[1,0.5]];portConstraint=eastwest;top=0;left=0;right=0;bottom=1;" parent="EqAMS2uMT9Ca-llQSgbX-54" vertex="1">
          <mxGeometry y="30" width="180" height="30" as="geometry" />
        </mxCell>
        <mxCell id="EqAMS2uMT9Ca-llQSgbX-56" value="PK" style="shape=partialRectangle;connectable=0;fillColor=none;top=0;left=0;bottom=0;right=0;fontStyle=1;overflow=hidden;whiteSpace=wrap;html=1;" parent="EqAMS2uMT9Ca-llQSgbX-55" vertex="1">
          <mxGeometry width="30" height="30" as="geometry">
            <mxRectangle width="30" height="30" as="alternateBounds" />
          </mxGeometry>
        </mxCell>
        <mxCell id="EqAMS2uMT9Ca-llQSgbX-57" value="id" style="shape=partialRectangle;connectable=0;fillColor=none;top=0;left=0;bottom=0;right=0;align=left;spacingLeft=6;fontStyle=5;overflow=hidden;whiteSpace=wrap;html=1;" parent="EqAMS2uMT9Ca-llQSgbX-55" vertex="1">
          <mxGeometry x="30" width="150" height="30" as="geometry">
            <mxRectangle width="150" height="30" as="alternateBounds" />
          </mxGeometry>
        </mxCell>
        <mxCell id="EqAMS2uMT9Ca-llQSgbX-58" value="" style="shape=tableRow;horizontal=0;startSize=0;swimlaneHead=0;swimlaneBody=0;fillColor=none;collapsible=0;dropTarget=0;points=[[0,0.5],[1,0.5]];portConstraint=eastwest;top=0;left=0;right=0;bottom=0;" parent="EqAMS2uMT9Ca-llQSgbX-54" vertex="1">
          <mxGeometry y="60" width="180" height="30" as="geometry" />
        </mxCell>
        <mxCell id="EqAMS2uMT9Ca-llQSgbX-59" value="" style="shape=partialRectangle;connectable=0;fillColor=none;top=0;left=0;bottom=0;right=0;editable=1;overflow=hidden;whiteSpace=wrap;html=1;" parent="EqAMS2uMT9Ca-llQSgbX-58" vertex="1">
          <mxGeometry width="30" height="30" as="geometry">
            <mxRectangle width="30" height="30" as="alternateBounds" />
          </mxGeometry>
        </mxCell>
        <mxCell id="EqAMS2uMT9Ca-llQSgbX-60" value="comment" style="shape=partialRectangle;connectable=0;fillColor=none;top=0;left=0;bottom=0;right=0;align=left;spacingLeft=6;overflow=hidden;whiteSpace=wrap;html=1;" parent="EqAMS2uMT9Ca-llQSgbX-58" vertex="1">
          <mxGeometry x="30" width="150" height="30" as="geometry">
            <mxRectangle width="150" height="30" as="alternateBounds" />
          </mxGeometry>
        </mxCell>
        <mxCell id="EqAMS2uMT9Ca-llQSgbX-61" value="" style="shape=tableRow;horizontal=0;startSize=0;swimlaneHead=0;swimlaneBody=0;fillColor=none;collapsible=0;dropTarget=0;points=[[0,0.5],[1,0.5]];portConstraint=eastwest;top=0;left=0;right=0;bottom=0;" parent="EqAMS2uMT9Ca-llQSgbX-54" vertex="1">
          <mxGeometry y="90" width="180" height="30" as="geometry" />
        </mxCell>
        <mxCell id="EqAMS2uMT9Ca-llQSgbX-62" value="" style="shape=partialRectangle;connectable=0;fillColor=none;top=0;left=0;bottom=0;right=0;editable=1;overflow=hidden;whiteSpace=wrap;html=1;" parent="EqAMS2uMT9Ca-llQSgbX-61" vertex="1">
          <mxGeometry width="30" height="30" as="geometry">
            <mxRectangle width="30" height="30" as="alternateBounds" />
          </mxGeometry>
        </mxCell>
        <mxCell id="EqAMS2uMT9Ca-llQSgbX-63" value="stars" style="shape=partialRectangle;connectable=0;fillColor=none;top=0;left=0;bottom=0;right=0;align=left;spacingLeft=6;overflow=hidden;whiteSpace=wrap;html=1;" parent="EqAMS2uMT9Ca-llQSgbX-61" vertex="1">
          <mxGeometry x="30" width="150" height="30" as="geometry">
            <mxRectangle width="150" height="30" as="alternateBounds" />
          </mxGeometry>
        </mxCell>
        <mxCell id="EqAMS2uMT9Ca-llQSgbX-64" value="" style="shape=tableRow;horizontal=0;startSize=0;swimlaneHead=0;swimlaneBody=0;fillColor=none;collapsible=0;dropTarget=0;points=[[0,0.5],[1,0.5]];portConstraint=eastwest;top=0;left=0;right=0;bottom=0;" parent="EqAMS2uMT9Ca-llQSgbX-54" vertex="1">
          <mxGeometry y="120" width="180" height="30" as="geometry" />
        </mxCell>
        <mxCell id="EqAMS2uMT9Ca-llQSgbX-65" value="FK" style="shape=partialRectangle;connectable=0;fillColor=none;top=0;left=0;bottom=0;right=0;editable=1;overflow=hidden;whiteSpace=wrap;html=1;" parent="EqAMS2uMT9Ca-llQSgbX-64" vertex="1">
          <mxGeometry width="30" height="30" as="geometry">
            <mxRectangle width="30" height="30" as="alternateBounds" />
          </mxGeometry>
        </mxCell>
        <mxCell id="EqAMS2uMT9Ca-llQSgbX-66" value="users" style="shape=partialRectangle;connectable=0;fillColor=none;top=0;left=0;bottom=0;right=0;align=left;spacingLeft=6;overflow=hidden;whiteSpace=wrap;html=1;" parent="EqAMS2uMT9Ca-llQSgbX-64" vertex="1">
          <mxGeometry x="30" width="150" height="30" as="geometry">
            <mxRectangle width="150" height="30" as="alternateBounds" />
          </mxGeometry>
        </mxCell>
        <mxCell id="EqAMS2uMT9Ca-llQSgbX-130" value="" style="shape=tableRow;horizontal=0;startSize=0;swimlaneHead=0;swimlaneBody=0;fillColor=none;collapsible=0;dropTarget=0;points=[[0,0.5],[1,0.5]];portConstraint=eastwest;top=0;left=0;right=0;bottom=0;" parent="EqAMS2uMT9Ca-llQSgbX-54" vertex="1">
          <mxGeometry y="150" width="180" height="30" as="geometry" />
        </mxCell>
        <mxCell id="EqAMS2uMT9Ca-llQSgbX-131" value="FK" style="shape=partialRectangle;connectable=0;fillColor=none;top=0;left=0;bottom=0;right=0;editable=1;overflow=hidden;whiteSpace=wrap;html=1;" parent="EqAMS2uMT9Ca-llQSgbX-130" vertex="1">
          <mxGeometry width="30" height="30" as="geometry">
            <mxRectangle width="30" height="30" as="alternateBounds" />
          </mxGeometry>
        </mxCell>
        <mxCell id="EqAMS2uMT9Ca-llQSgbX-132" value="foods" style="shape=partialRectangle;connectable=0;fillColor=none;top=0;left=0;bottom=0;right=0;align=left;spacingLeft=6;overflow=hidden;whiteSpace=wrap;html=1;" parent="EqAMS2uMT9Ca-llQSgbX-130" vertex="1">
          <mxGeometry x="30" width="150" height="30" as="geometry">
            <mxRectangle width="150" height="30" as="alternateBounds" />
          </mxGeometry>
        </mxCell>
        <mxCell id="EqAMS2uMT9Ca-llQSgbX-67" value="Orders&lt;span style=&quot;color: rgba(0, 0, 0, 0); font-family: monospace; font-size: 0px; font-weight: 400; text-align: start;&quot;&gt;%3CmxGraphModel%3E%3Croot%3E%3CmxCell%20id%3D%220%22%2F%3E%3CmxCell%20id%3D%221%22%20parent%3D%220%22%2F%3E%3CmxCell%20id%3D%222%22%20value%3D%22Roles%22%20style%3D%22shape%3Dtable%3BstartSize%3D30%3Bcontainer%3D1%3Bcollapsible%3D1%3BchildLayout%3DtableLayout%3BfixedRows%3D1%3BrowLines%3D0%3BfontStyle%3D1%3Balign%3Dcenter%3BresizeLast%3D1%3Bhtml%3D1%3B%22%20vertex%3D%221%22%20parent%3D%221%22%3E%3CmxGeometry%20x%3D%22240%22%20y%3D%22110%22%20width%3D%22180%22%20height%3D%22150%22%20as%3D%22geometry%22%2F%3E%3C%2FmxCell%3E%3CmxCell%20id%3D%223%22%20value%3D%22%22%20style%3D%22shape%3DtableRow%3Bhorizontal%3D0%3BstartSize%3D0%3BswimlaneHead%3D0%3BswimlaneBody%3D0%3BfillColor%3Dnone%3Bcollapsible%3D0%3BdropTarget%3D0%3Bpoints%3D%5B%5B0%2C0.5%5D%2C%5B1%2C0.5%5D%5D%3BportConstraint%3Deastwest%3Btop%3D0%3Bleft%3D0%3Bright%3D0%3Bbottom%3D1%3B%22%20vertex%3D%221%22%20parent%3D%222%22%3E%3CmxGeometry%20y%3D%2230%22%20width%3D%22180%22%20height%3D%2230%22%20as%3D%22geometry%22%2F%3E%3C%2FmxCell%3E%3CmxCell%20id%3D%224%22%20value%3D%22PK%22%20style%3D%22shape%3DpartialRectangle%3Bconnectable%3D0%3BfillColor%3Dnone%3Btop%3D0%3Bleft%3D0%3Bbottom%3D0%3Bright%3D0%3BfontStyle%3D1%3Boverflow%3Dhidden%3BwhiteSpace%3Dwrap%3Bhtml%3D1%3B%22%20vertex%3D%221%22%20parent%3D%223%22%3E%3CmxGeometry%20width%3D%2230%22%20height%3D%2230%22%20as%3D%22geometry%22%3E%3CmxRectangle%20width%3D%2230%22%20height%3D%2230%22%20as%3D%22alternateBounds%22%2F%3E%3C%2FmxGeometry%3E%3C%2FmxCell%3E%3CmxCell%20id%3D%225%22%20value%3D%22UniqueID%22%20style%3D%22shape%3DpartialRectangle%3Bconnectable%3D0%3BfillColor%3Dnone%3Btop%3D0%3Bleft%3D0%3Bbottom%3D0%3Bright%3D0%3Balign%3Dleft%3BspacingLeft%3D6%3BfontStyle%3D5%3Boverflow%3Dhidden%3BwhiteSpace%3Dwrap%3Bhtml%3D1%3B%22%20vertex%3D%221%22%20parent%3D%223%22%3E%3CmxGeometry%20x%3D%2230%22%20width%3D%22150%22%20height%3D%2230%22%20as%3D%22geometry%22%3E%3CmxRectangle%20width%3D%22150%22%20height%3D%2230%22%20as%3D%22alternateBounds%22%2F%3E%3C%2FmxGeometry%3E%3C%2FmxCell%3E%3CmxCell%20id%3D%226%22%20value%3D%22%22%20style%3D%22shape%3DtableRow%3Bhorizontal%3D0%3BstartSize%3D0%3BswimlaneHead%3D0%3BswimlaneBody%3D0%3BfillColor%3Dnone%3Bcollapsible%3D0%3BdropTarget%3D0%3Bpoints%3D%5B%5B0%2C0.5%5D%2C%5B1%2C0.5%5D%5D%3BportConstraint%3Deastwest%3Btop%3D0%3Bleft%3D0%3Bright%3D0%3Bbottom%3D0%3B%22%20vertex%3D%221%22%20parent%3D%222%22%3E%3CmxGeometry%20y%3D%2260%22%20width%3D%22180%22%20height%3D%2230%22%20as%3D%22geometry%22%2F%3E%3C%2FmxCell%3E%3CmxCell%20id%3D%227%22%20value%3D%22%22%20style%3D%22shape%3DpartialRectangle%3Bconnectable%3D0%3BfillColor%3Dnone%3Btop%3D0%3Bleft%3D0%3Bbottom%3D0%3Bright%3D0%3Beditable%3D1%3Boverflow%3Dhidden%3BwhiteSpace%3Dwrap%3Bhtml%3D1%3B%22%20vertex%3D%221%22%20parent%3D%226%22%3E%3CmxGeometry%20width%3D%2230%22%20height%3D%2230%22%20as%3D%22geometry%22%3E%3CmxRectangle%20width%3D%2230%22%20height%3D%2230%22%20as%3D%22alternateBounds%22%2F%3E%3C%2FmxGeometry%3E%3C%2FmxCell%3E%3CmxCell%20id%3D%228%22%20value%3D%22Row%201%22%20style%3D%22shape%3DpartialRectangle%3Bconnectable%3D0%3BfillColor%3Dnone%3Btop%3D0%3Bleft%3D0%3Bbottom%3D0%3Bright%3D0%3Balign%3Dleft%3BspacingLeft%3D6%3Boverflow%3Dhidden%3BwhiteSpace%3Dwrap%3Bhtml%3D1%3B%22%20vertex%3D%221%22%20parent%3D%226%22%3E%3CmxGeometry%20x%3D%2230%22%20width%3D%22150%22%20height%3D%2230%22%20as%3D%22geometry%22%3E%3CmxRectangle%20width%3D%22150%22%20height%3D%2230%22%20as%3D%22alternateBounds%22%2F%3E%3C%2FmxGeometry%3E%3C%2FmxCell%3E%3CmxCell%20id%3D%229%22%20value%3D%22%22%20style%3D%22shape%3DtableRow%3Bhorizontal%3D0%3BstartSize%3D0%3BswimlaneHead%3D0%3BswimlaneBody%3D0%3BfillColor%3Dnone%3Bcollapsible%3D0%3BdropTarget%3D0%3Bpoints%3D%5B%5B0%2C0.5%5D%2C%5B1%2C0.5%5D%5D%3BportConstraint%3Deastwest%3Btop%3D0%3Bleft%3D0%3Bright%3D0%3Bbottom%3D0%3B%22%20vertex%3D%221%22%20parent%3D%222%22%3E%3CmxGeometry%20y%3D%2290%22%20width%3D%22180%22%20height%3D%2230%22%20as%3D%22geometry%22%2F%3E%3C%2FmxCell%3E%3CmxCell%20id%3D%2210%22%20value%3D%22%22%20style%3D%22shape%3DpartialRectangle%3Bconnectable%3D0%3BfillColor%3Dnone%3Btop%3D0%3Bleft%3D0%3Bbottom%3D0%3Bright%3D0%3Beditable%3D1%3Boverflow%3Dhidden%3BwhiteSpace%3Dwrap%3Bhtml%3D1%3B%22%20vertex%3D%221%22%20parent%3D%229%22%3E%3CmxGeometry%20width%3D%2230%22%20height%3D%2230%22%20as%3D%22geometry%22%3E%3CmxRectangle%20width%3D%2230%22%20height%3D%2230%22%20as%3D%22alternateBounds%22%2F%3E%3C%2FmxGeometry%3E%3C%2FmxCell%3E%3CmxCell%20id%3D%2211%22%20value%3D%22Row%202%22%20style%3D%22shape%3DpartialRectangle%3Bconnectable%3D0%3BfillColor%3Dnone%3Btop%3D0%3Bleft%3D0%3Bbottom%3D0%3Bright%3D0%3Balign%3Dleft%3BspacingLeft%3D6%3Boverflow%3Dhidden%3BwhiteSpace%3Dwrap%3Bhtml%3D1%3B%22%20vertex%3D%221%22%20parent%3D%229%22%3E%3CmxGeometry%20x%3D%2230%22%20width%3D%22150%22%20height%3D%2230%22%20as%3D%22geometry%22%3E%3CmxRectangle%20width%3D%22150%22%20height%3D%2230%22%20as%3D%22alternateBounds%22%2F%3E%3C%2FmxGeometry%3E%3C%2FmxCell%3E%3CmxCell%20id%3D%2212%22%20value%3D%22%22%20style%3D%22shape%3DtableRow%3Bhorizontal%3D0%3BstartSize%3D0%3BswimlaneHead%3D0%3BswimlaneBody%3D0%3BfillColor%3Dnone%3Bcollapsible%3D0%3BdropTarget%3D0%3Bpoints%3D%5B%5B0%2C0.5%5D%2C%5B1%2C0.5%5D%5D%3BportConstraint%3Deastwest%3Btop%3D0%3Bleft%3D0%3Bright%3D0%3Bbottom%3D0%3B%22%20vertex%3D%221%22%20parent%3D%222%22%3E%3CmxGeometry%20y%3D%22120%22%20width%3D%22180%22%20height%3D%2230%22%20as%3D%22geometry%22%2F%3E%3C%2FmxCell%3E%3CmxCell%20id%3D%2213%22%20value%3D%22%22%20style%3D%22shape%3DpartialRectangle%3Bconnectable%3D0%3BfillColor%3Dnone%3Btop%3D0%3Bleft%3D0%3Bbottom%3D0%3Bright%3D0%3Beditable%3D1%3Boverflow%3Dhidden%3BwhiteSpace%3Dwrap%3Bhtml%3D1%3B%22%20vertex%3D%221%22%20parent%3D%2212%22%3E%3CmxGeometry%20width%3D%2230%22%20height%3D%2230%22%20as%3D%22geometry%22%3E%3CmxRectangle%20width%3D%2230%22%20height%3D%2230%22%20as%3D%22alternateBounds%22%2F%3E%3C%2FmxGeometry%3E%3C%2FmxCell%3E%3CmxCell%20id%3D%2214%22%20value%3D%22Row%203%22%20style%3D%22shape%3DpartialRectangle%3Bconnectable%3D0%3BfillColor%3Dnone%3Btop%3D0%3Bleft%3D0%3Bbottom%3D0%3Bright%3D0%3Balign%3Dleft%3BspacingLeft%3D6%3Boverflow%3Dhidden%3BwhiteSpace%3Dwrap%3Bhtml%3D1%3B%22%20vertex%3D%221%22%20parent%3D%2212%22%3E%3CmxGeometry%20x%3D%2230%22%20width%3D%22150%22%20height%3D%2230%22%20as%3D%22geometry%22%3E%3CmxRectangle%20width%3D%22150%22%20height%3D%2230%22%20as%3D%22alternateBounds%22%2F%3E%3C%2FmxGeometry%3E%3C%2FmxCell%3E%3C%2Froot%3E%3C%2FmxGraphModel%3E&lt;/span&gt;" style="shape=table;startSize=30;container=1;collapsible=1;childLayout=tableLayout;fixedRows=1;rowLines=0;fontStyle=1;align=center;resizeLast=1;html=1;" parent="1" vertex="1">
          <mxGeometry y="170" width="180" height="240" as="geometry" />
        </mxCell>
        <mxCell id="EqAMS2uMT9Ca-llQSgbX-68" value="" style="shape=tableRow;horizontal=0;startSize=0;swimlaneHead=0;swimlaneBody=0;fillColor=none;collapsible=0;dropTarget=0;points=[[0,0.5],[1,0.5]];portConstraint=eastwest;top=0;left=0;right=0;bottom=1;" parent="EqAMS2uMT9Ca-llQSgbX-67" vertex="1">
          <mxGeometry y="30" width="180" height="30" as="geometry" />
        </mxCell>
        <mxCell id="EqAMS2uMT9Ca-llQSgbX-69" value="PK" style="shape=partialRectangle;connectable=0;fillColor=none;top=0;left=0;bottom=0;right=0;fontStyle=1;overflow=hidden;whiteSpace=wrap;html=1;" parent="EqAMS2uMT9Ca-llQSgbX-68" vertex="1">
          <mxGeometry width="30" height="30" as="geometry">
            <mxRectangle width="30" height="30" as="alternateBounds" />
          </mxGeometry>
        </mxCell>
        <mxCell id="EqAMS2uMT9Ca-llQSgbX-70" value="id" style="shape=partialRectangle;connectable=0;fillColor=none;top=0;left=0;bottom=0;right=0;align=left;spacingLeft=6;fontStyle=5;overflow=hidden;whiteSpace=wrap;html=1;" parent="EqAMS2uMT9Ca-llQSgbX-68" vertex="1">
          <mxGeometry x="30" width="150" height="30" as="geometry">
            <mxRectangle width="150" height="30" as="alternateBounds" />
          </mxGeometry>
        </mxCell>
        <mxCell id="EqAMS2uMT9Ca-llQSgbX-71" value="" style="shape=tableRow;horizontal=0;startSize=0;swimlaneHead=0;swimlaneBody=0;fillColor=none;collapsible=0;dropTarget=0;points=[[0,0.5],[1,0.5]];portConstraint=eastwest;top=0;left=0;right=0;bottom=0;" parent="EqAMS2uMT9Ca-llQSgbX-67" vertex="1">
          <mxGeometry y="60" width="180" height="30" as="geometry" />
        </mxCell>
        <mxCell id="EqAMS2uMT9Ca-llQSgbX-72" value="" style="shape=partialRectangle;connectable=0;fillColor=none;top=0;left=0;bottom=0;right=0;editable=1;overflow=hidden;whiteSpace=wrap;html=1;" parent="EqAMS2uMT9Ca-llQSgbX-71" vertex="1">
          <mxGeometry width="30" height="30" as="geometry">
            <mxRectangle width="30" height="30" as="alternateBounds" />
          </mxGeometry>
        </mxCell>
        <mxCell id="EqAMS2uMT9Ca-llQSgbX-73" value="total" style="shape=partialRectangle;connectable=0;fillColor=none;top=0;left=0;bottom=0;right=0;align=left;spacingLeft=6;overflow=hidden;whiteSpace=wrap;html=1;" parent="EqAMS2uMT9Ca-llQSgbX-71" vertex="1">
          <mxGeometry x="30" width="150" height="30" as="geometry">
            <mxRectangle width="150" height="30" as="alternateBounds" />
          </mxGeometry>
        </mxCell>
        <mxCell id="EqAMS2uMT9Ca-llQSgbX-74" value="" style="shape=tableRow;horizontal=0;startSize=0;swimlaneHead=0;swimlaneBody=0;fillColor=none;collapsible=0;dropTarget=0;points=[[0,0.5],[1,0.5]];portConstraint=eastwest;top=0;left=0;right=0;bottom=0;" parent="EqAMS2uMT9Ca-llQSgbX-67" vertex="1">
          <mxGeometry y="90" width="180" height="30" as="geometry" />
        </mxCell>
        <mxCell id="EqAMS2uMT9Ca-llQSgbX-75" value="" style="shape=partialRectangle;connectable=0;fillColor=none;top=0;left=0;bottom=0;right=0;editable=1;overflow=hidden;whiteSpace=wrap;html=1;" parent="EqAMS2uMT9Ca-llQSgbX-74" vertex="1">
          <mxGeometry width="30" height="30" as="geometry">
            <mxRectangle width="30" height="30" as="alternateBounds" />
          </mxGeometry>
        </mxCell>
        <mxCell id="EqAMS2uMT9Ca-llQSgbX-76" value="status" style="shape=partialRectangle;connectable=0;fillColor=none;top=0;left=0;bottom=0;right=0;align=left;spacingLeft=6;overflow=hidden;whiteSpace=wrap;html=1;" parent="EqAMS2uMT9Ca-llQSgbX-74" vertex="1">
          <mxGeometry x="30" width="150" height="30" as="geometry">
            <mxRectangle width="150" height="30" as="alternateBounds" />
          </mxGeometry>
        </mxCell>
        <mxCell id="EqAMS2uMT9Ca-llQSgbX-77" value="" style="shape=tableRow;horizontal=0;startSize=0;swimlaneHead=0;swimlaneBody=0;fillColor=none;collapsible=0;dropTarget=0;points=[[0,0.5],[1,0.5]];portConstraint=eastwest;top=0;left=0;right=0;bottom=0;" parent="EqAMS2uMT9Ca-llQSgbX-67" vertex="1">
          <mxGeometry y="120" width="180" height="40" as="geometry" />
        </mxCell>
        <mxCell id="EqAMS2uMT9Ca-llQSgbX-78" value="" style="shape=partialRectangle;connectable=0;fillColor=none;top=0;left=0;bottom=0;right=0;editable=1;overflow=hidden;whiteSpace=wrap;html=1;" parent="EqAMS2uMT9Ca-llQSgbX-77" vertex="1">
          <mxGeometry width="30" height="40" as="geometry">
            <mxRectangle width="30" height="40" as="alternateBounds" />
          </mxGeometry>
        </mxCell>
        <mxCell id="EqAMS2uMT9Ca-llQSgbX-79" value="date" style="shape=partialRectangle;connectable=0;fillColor=none;top=0;left=0;bottom=0;right=0;align=left;spacingLeft=6;overflow=hidden;whiteSpace=wrap;html=1;" parent="EqAMS2uMT9Ca-llQSgbX-77" vertex="1">
          <mxGeometry x="30" width="150" height="40" as="geometry">
            <mxRectangle width="150" height="40" as="alternateBounds" />
          </mxGeometry>
        </mxCell>
        <mxCell id="EqAMS2uMT9Ca-llQSgbX-138" value="" style="shape=tableRow;horizontal=0;startSize=0;swimlaneHead=0;swimlaneBody=0;fillColor=none;collapsible=0;dropTarget=0;points=[[0,0.5],[1,0.5]];portConstraint=eastwest;top=0;left=0;right=0;bottom=0;" parent="EqAMS2uMT9Ca-llQSgbX-67" vertex="1">
          <mxGeometry y="160" width="180" height="40" as="geometry" />
        </mxCell>
        <mxCell id="EqAMS2uMT9Ca-llQSgbX-139" value="FK" style="shape=partialRectangle;connectable=0;fillColor=none;top=0;left=0;bottom=0;right=0;editable=1;overflow=hidden;whiteSpace=wrap;html=1;" parent="EqAMS2uMT9Ca-llQSgbX-138" vertex="1">
          <mxGeometry width="30" height="40" as="geometry">
            <mxRectangle width="30" height="40" as="alternateBounds" />
          </mxGeometry>
        </mxCell>
        <mxCell id="EqAMS2uMT9Ca-llQSgbX-140" value="users" style="shape=partialRectangle;connectable=0;fillColor=none;top=0;left=0;bottom=0;right=0;align=left;spacingLeft=6;overflow=hidden;whiteSpace=wrap;html=1;" parent="EqAMS2uMT9Ca-llQSgbX-138" vertex="1">
          <mxGeometry x="30" width="150" height="40" as="geometry">
            <mxRectangle width="150" height="40" as="alternateBounds" />
          </mxGeometry>
        </mxCell>
        <mxCell id="EqAMS2uMT9Ca-llQSgbX-141" value="" style="shape=tableRow;horizontal=0;startSize=0;swimlaneHead=0;swimlaneBody=0;fillColor=none;collapsible=0;dropTarget=0;points=[[0,0.5],[1,0.5]];portConstraint=eastwest;top=0;left=0;right=0;bottom=0;" parent="EqAMS2uMT9Ca-llQSgbX-67" vertex="1">
          <mxGeometry y="200" width="180" height="40" as="geometry" />
        </mxCell>
        <mxCell id="EqAMS2uMT9Ca-llQSgbX-142" value="FK" style="shape=partialRectangle;connectable=0;fillColor=none;top=0;left=0;bottom=0;right=0;editable=1;overflow=hidden;whiteSpace=wrap;html=1;" parent="EqAMS2uMT9Ca-llQSgbX-141" vertex="1">
          <mxGeometry width="30" height="40" as="geometry">
            <mxRectangle width="30" height="40" as="alternateBounds" />
          </mxGeometry>
        </mxCell>
        <mxCell id="EqAMS2uMT9Ca-llQSgbX-143" value="payments" style="shape=partialRectangle;connectable=0;fillColor=none;top=0;left=0;bottom=0;right=0;align=left;spacingLeft=6;overflow=hidden;whiteSpace=wrap;html=1;" parent="EqAMS2uMT9Ca-llQSgbX-141" vertex="1">
          <mxGeometry x="30" width="150" height="40" as="geometry">
            <mxRectangle width="150" height="40" as="alternateBounds" />
          </mxGeometry>
        </mxCell>
        <mxCell id="EqAMS2uMT9Ca-llQSgbX-80" value="OrderDetails" style="shape=table;startSize=30;container=1;collapsible=1;childLayout=tableLayout;fixedRows=1;rowLines=0;fontStyle=1;align=center;resizeLast=1;html=1;" parent="1" vertex="1">
          <mxGeometry y="445" width="180" height="180" as="geometry" />
        </mxCell>
        <mxCell id="EqAMS2uMT9Ca-llQSgbX-81" value="" style="shape=tableRow;horizontal=0;startSize=0;swimlaneHead=0;swimlaneBody=0;fillColor=none;collapsible=0;dropTarget=0;points=[[0,0.5],[1,0.5]];portConstraint=eastwest;top=0;left=0;right=0;bottom=1;" parent="EqAMS2uMT9Ca-llQSgbX-80" vertex="1">
          <mxGeometry y="30" width="180" height="30" as="geometry" />
        </mxCell>
        <mxCell id="EqAMS2uMT9Ca-llQSgbX-82" value="PK" style="shape=partialRectangle;connectable=0;fillColor=none;top=0;left=0;bottom=0;right=0;fontStyle=1;overflow=hidden;whiteSpace=wrap;html=1;" parent="EqAMS2uMT9Ca-llQSgbX-81" vertex="1">
          <mxGeometry width="30" height="30" as="geometry">
            <mxRectangle width="30" height="30" as="alternateBounds" />
          </mxGeometry>
        </mxCell>
        <mxCell id="EqAMS2uMT9Ca-llQSgbX-83" value="id" style="shape=partialRectangle;connectable=0;fillColor=none;top=0;left=0;bottom=0;right=0;align=left;spacingLeft=6;fontStyle=5;overflow=hidden;whiteSpace=wrap;html=1;" parent="EqAMS2uMT9Ca-llQSgbX-81" vertex="1">
          <mxGeometry x="30" width="150" height="30" as="geometry">
            <mxRectangle width="150" height="30" as="alternateBounds" />
          </mxGeometry>
        </mxCell>
        <mxCell id="EqAMS2uMT9Ca-llQSgbX-84" value="" style="shape=tableRow;horizontal=0;startSize=0;swimlaneHead=0;swimlaneBody=0;fillColor=none;collapsible=0;dropTarget=0;points=[[0,0.5],[1,0.5]];portConstraint=eastwest;top=0;left=0;right=0;bottom=0;" parent="EqAMS2uMT9Ca-llQSgbX-80" vertex="1">
          <mxGeometry y="60" width="180" height="30" as="geometry" />
        </mxCell>
        <mxCell id="EqAMS2uMT9Ca-llQSgbX-85" value="" style="shape=partialRectangle;connectable=0;fillColor=none;top=0;left=0;bottom=0;right=0;editable=1;overflow=hidden;whiteSpace=wrap;html=1;" parent="EqAMS2uMT9Ca-llQSgbX-84" vertex="1">
          <mxGeometry width="30" height="30" as="geometry">
            <mxRectangle width="30" height="30" as="alternateBounds" />
          </mxGeometry>
        </mxCell>
        <mxCell id="EqAMS2uMT9Ca-llQSgbX-86" value="quantity" style="shape=partialRectangle;connectable=0;fillColor=none;top=0;left=0;bottom=0;right=0;align=left;spacingLeft=6;overflow=hidden;whiteSpace=wrap;html=1;" parent="EqAMS2uMT9Ca-llQSgbX-84" vertex="1">
          <mxGeometry x="30" width="150" height="30" as="geometry">
            <mxRectangle width="150" height="30" as="alternateBounds" />
          </mxGeometry>
        </mxCell>
        <mxCell id="EqAMS2uMT9Ca-llQSgbX-87" value="" style="shape=tableRow;horizontal=0;startSize=0;swimlaneHead=0;swimlaneBody=0;fillColor=none;collapsible=0;dropTarget=0;points=[[0,0.5],[1,0.5]];portConstraint=eastwest;top=0;left=0;right=0;bottom=0;" parent="EqAMS2uMT9Ca-llQSgbX-80" vertex="1">
          <mxGeometry y="90" width="180" height="30" as="geometry" />
        </mxCell>
        <mxCell id="EqAMS2uMT9Ca-llQSgbX-88" value="" style="shape=partialRectangle;connectable=0;fillColor=none;top=0;left=0;bottom=0;right=0;editable=1;overflow=hidden;whiteSpace=wrap;html=1;" parent="EqAMS2uMT9Ca-llQSgbX-87" vertex="1">
          <mxGeometry width="30" height="30" as="geometry">
            <mxRectangle width="30" height="30" as="alternateBounds" />
          </mxGeometry>
        </mxCell>
        <mxCell id="EqAMS2uMT9Ca-llQSgbX-89" value="price" style="shape=partialRectangle;connectable=0;fillColor=none;top=0;left=0;bottom=0;right=0;align=left;spacingLeft=6;overflow=hidden;whiteSpace=wrap;html=1;" parent="EqAMS2uMT9Ca-llQSgbX-87" vertex="1">
          <mxGeometry x="30" width="150" height="30" as="geometry">
            <mxRectangle width="150" height="30" as="alternateBounds" />
          </mxGeometry>
        </mxCell>
        <mxCell id="EqAMS2uMT9Ca-llQSgbX-90" value="" style="shape=tableRow;horizontal=0;startSize=0;swimlaneHead=0;swimlaneBody=0;fillColor=none;collapsible=0;dropTarget=0;points=[[0,0.5],[1,0.5]];portConstraint=eastwest;top=0;left=0;right=0;bottom=0;" parent="EqAMS2uMT9Ca-llQSgbX-80" vertex="1">
          <mxGeometry y="120" width="180" height="30" as="geometry" />
        </mxCell>
        <mxCell id="EqAMS2uMT9Ca-llQSgbX-91" value="FK" style="shape=partialRectangle;connectable=0;fillColor=none;top=0;left=0;bottom=0;right=0;editable=1;overflow=hidden;whiteSpace=wrap;html=1;" parent="EqAMS2uMT9Ca-llQSgbX-90" vertex="1">
          <mxGeometry width="30" height="30" as="geometry">
            <mxRectangle width="30" height="30" as="alternateBounds" />
          </mxGeometry>
        </mxCell>
        <mxCell id="EqAMS2uMT9Ca-llQSgbX-92" value="orders" style="shape=partialRectangle;connectable=0;fillColor=none;top=0;left=0;bottom=0;right=0;align=left;spacingLeft=6;overflow=hidden;whiteSpace=wrap;html=1;" parent="EqAMS2uMT9Ca-llQSgbX-90" vertex="1">
          <mxGeometry x="30" width="150" height="30" as="geometry">
            <mxRectangle width="150" height="30" as="alternateBounds" />
          </mxGeometry>
        </mxCell>
        <mxCell id="EqAMS2uMT9Ca-llQSgbX-185" value="" style="shape=tableRow;horizontal=0;startSize=0;swimlaneHead=0;swimlaneBody=0;fillColor=none;collapsible=0;dropTarget=0;points=[[0,0.5],[1,0.5]];portConstraint=eastwest;top=0;left=0;right=0;bottom=0;" parent="EqAMS2uMT9Ca-llQSgbX-80" vertex="1">
          <mxGeometry y="150" width="180" height="30" as="geometry" />
        </mxCell>
        <mxCell id="EqAMS2uMT9Ca-llQSgbX-186" value="FK" style="shape=partialRectangle;connectable=0;fillColor=none;top=0;left=0;bottom=0;right=0;editable=1;overflow=hidden;whiteSpace=wrap;html=1;" parent="EqAMS2uMT9Ca-llQSgbX-185" vertex="1">
          <mxGeometry width="30" height="30" as="geometry">
            <mxRectangle width="30" height="30" as="alternateBounds" />
          </mxGeometry>
        </mxCell>
        <mxCell id="EqAMS2uMT9Ca-llQSgbX-187" value="foods" style="shape=partialRectangle;connectable=0;fillColor=none;top=0;left=0;bottom=0;right=0;align=left;spacingLeft=6;overflow=hidden;whiteSpace=wrap;html=1;" parent="EqAMS2uMT9Ca-llQSgbX-185" vertex="1">
          <mxGeometry x="30" width="150" height="30" as="geometry">
            <mxRectangle width="150" height="30" as="alternateBounds" />
          </mxGeometry>
        </mxCell>
        <mxCell id="EqAMS2uMT9Ca-llQSgbX-93" value="Discounts" style="shape=table;startSize=30;container=1;collapsible=1;childLayout=tableLayout;fixedRows=1;rowLines=0;fontStyle=1;align=center;resizeLast=1;html=1;" parent="1" vertex="1">
          <mxGeometry x="880" width="180" height="120" as="geometry" />
        </mxCell>
        <mxCell id="EqAMS2uMT9Ca-llQSgbX-94" value="" style="shape=tableRow;horizontal=0;startSize=0;swimlaneHead=0;swimlaneBody=0;fillColor=none;collapsible=0;dropTarget=0;points=[[0,0.5],[1,0.5]];portConstraint=eastwest;top=0;left=0;right=0;bottom=1;" parent="EqAMS2uMT9Ca-llQSgbX-93" vertex="1">
          <mxGeometry y="30" width="180" height="30" as="geometry" />
        </mxCell>
        <mxCell id="EqAMS2uMT9Ca-llQSgbX-95" value="PK" style="shape=partialRectangle;connectable=0;fillColor=none;top=0;left=0;bottom=0;right=0;fontStyle=1;overflow=hidden;whiteSpace=wrap;html=1;" parent="EqAMS2uMT9Ca-llQSgbX-94" vertex="1">
          <mxGeometry width="30" height="30" as="geometry">
            <mxRectangle width="30" height="30" as="alternateBounds" />
          </mxGeometry>
        </mxCell>
        <mxCell id="EqAMS2uMT9Ca-llQSgbX-96" value="id" style="shape=partialRectangle;connectable=0;fillColor=none;top=0;left=0;bottom=0;right=0;align=left;spacingLeft=6;fontStyle=5;overflow=hidden;whiteSpace=wrap;html=1;" parent="EqAMS2uMT9Ca-llQSgbX-94" vertex="1">
          <mxGeometry x="30" width="150" height="30" as="geometry">
            <mxRectangle width="150" height="30" as="alternateBounds" />
          </mxGeometry>
        </mxCell>
        <mxCell id="EqAMS2uMT9Ca-llQSgbX-100" value="" style="shape=tableRow;horizontal=0;startSize=0;swimlaneHead=0;swimlaneBody=0;fillColor=none;collapsible=0;dropTarget=0;points=[[0,0.5],[1,0.5]];portConstraint=eastwest;top=0;left=0;right=0;bottom=0;" parent="EqAMS2uMT9Ca-llQSgbX-93" vertex="1">
          <mxGeometry y="60" width="180" height="30" as="geometry" />
        </mxCell>
        <mxCell id="EqAMS2uMT9Ca-llQSgbX-101" value="" style="shape=partialRectangle;connectable=0;fillColor=none;top=0;left=0;bottom=0;right=0;editable=1;overflow=hidden;whiteSpace=wrap;html=1;" parent="EqAMS2uMT9Ca-llQSgbX-100" vertex="1">
          <mxGeometry width="30" height="30" as="geometry">
            <mxRectangle width="30" height="30" as="alternateBounds" />
          </mxGeometry>
        </mxCell>
        <mxCell id="EqAMS2uMT9Ca-llQSgbX-102" value="discount" style="shape=partialRectangle;connectable=0;fillColor=none;top=0;left=0;bottom=0;right=0;align=left;spacingLeft=6;overflow=hidden;whiteSpace=wrap;html=1;" parent="EqAMS2uMT9Ca-llQSgbX-100" vertex="1">
          <mxGeometry x="30" width="150" height="30" as="geometry">
            <mxRectangle width="150" height="30" as="alternateBounds" />
          </mxGeometry>
        </mxCell>
        <mxCell id="EqAMS2uMT9Ca-llQSgbX-103" value="" style="shape=tableRow;horizontal=0;startSize=0;swimlaneHead=0;swimlaneBody=0;fillColor=none;collapsible=0;dropTarget=0;points=[[0,0.5],[1,0.5]];portConstraint=eastwest;top=0;left=0;right=0;bottom=0;" parent="EqAMS2uMT9Ca-llQSgbX-93" vertex="1">
          <mxGeometry y="90" width="180" height="30" as="geometry" />
        </mxCell>
        <mxCell id="EqAMS2uMT9Ca-llQSgbX-104" value="" style="shape=partialRectangle;connectable=0;fillColor=none;top=0;left=0;bottom=0;right=0;editable=1;overflow=hidden;whiteSpace=wrap;html=1;" parent="EqAMS2uMT9Ca-llQSgbX-103" vertex="1">
          <mxGeometry width="30" height="30" as="geometry">
            <mxRectangle width="30" height="30" as="alternateBounds" />
          </mxGeometry>
        </mxCell>
        <mxCell id="EqAMS2uMT9Ca-llQSgbX-105" value="&lt;div&gt;expiryDate&lt;/div&gt;" style="shape=partialRectangle;connectable=0;fillColor=none;top=0;left=0;bottom=0;right=0;align=left;spacingLeft=6;overflow=hidden;whiteSpace=wrap;html=1;" parent="EqAMS2uMT9Ca-llQSgbX-103" vertex="1">
          <mxGeometry x="30" width="150" height="30" as="geometry">
            <mxRectangle width="150" height="30" as="alternateBounds" />
          </mxGeometry>
        </mxCell>
        <mxCell id="EqAMS2uMT9Ca-llQSgbX-129" value="" style="edgeStyle=orthogonalEdgeStyle;fontSize=12;html=1;endArrow=ERoneToMany;startArrow=ERmandOne;rounded=0;exitX=1;exitY=0.5;exitDx=0;exitDy=0;entryX=0;entryY=0.5;entryDx=0;entryDy=0;" parent="1" source="EqAMS2uMT9Ca-llQSgbX-15" target="EqAMS2uMT9Ca-llQSgbX-64" edge="1">
          <mxGeometry width="100" height="100" relative="1" as="geometry">
            <mxPoint x="414" y="340" as="sourcePoint" />
            <mxPoint x="530" y="520" as="targetPoint" />
            <Array as="points">
              <mxPoint x="530" y="45" />
              <mxPoint x="530" y="545" />
            </Array>
          </mxGeometry>
        </mxCell>
        <mxCell id="EqAMS2uMT9Ca-llQSgbX-133" value="" style="edgeStyle=orthogonalEdgeStyle;fontSize=12;html=1;endArrow=ERoneToMany;startArrow=ERmandOne;rounded=0;exitX=1;exitY=0.5;exitDx=0;exitDy=0;entryX=1;entryY=0.5;entryDx=0;entryDy=0;" parent="1" source="EqAMS2uMT9Ca-llQSgbX-42" target="EqAMS2uMT9Ca-llQSgbX-130" edge="1">
          <mxGeometry width="100" height="100" relative="1" as="geometry">
            <mxPoint x="340" y="300" as="sourcePoint" />
            <mxPoint x="440" y="420" as="targetPoint" />
            <Array as="points">
              <mxPoint x="810" y="135" />
              <mxPoint x="810" y="575" />
            </Array>
          </mxGeometry>
        </mxCell>
        <mxCell id="EqAMS2uMT9Ca-llQSgbX-134" value="" style="edgeStyle=orthogonalEdgeStyle;fontSize=12;html=1;endArrow=ERoneToMany;startArrow=ERmandOne;rounded=0;exitX=0;exitY=0.5;exitDx=0;exitDy=0;entryX=0;entryY=0.5;entryDx=0;entryDy=0;" parent="1" source="EqAMS2uMT9Ca-llQSgbX-28" target="EqAMS2uMT9Ca-llQSgbX-120" edge="1">
          <mxGeometry width="100" height="100" relative="1" as="geometry">
            <mxPoint x="590" y="45" as="sourcePoint" />
            <mxPoint x="590" y="355" as="targetPoint" />
            <Array as="points">
              <mxPoint x="580" y="45" />
              <mxPoint x="580" y="375" />
            </Array>
          </mxGeometry>
        </mxCell>
        <mxCell id="EqAMS2uMT9Ca-llQSgbX-157" value="Payments" style="shape=table;startSize=30;container=1;collapsible=1;childLayout=tableLayout;fixedRows=1;rowLines=0;fontStyle=1;align=center;resizeLast=1;html=1;" parent="1" vertex="1">
          <mxGeometry x="280" y="346" width="180" height="360" as="geometry" />
        </mxCell>
        <mxCell id="EqAMS2uMT9Ca-llQSgbX-158" value="" style="shape=tableRow;horizontal=0;startSize=0;swimlaneHead=0;swimlaneBody=0;fillColor=none;collapsible=0;dropTarget=0;points=[[0,0.5],[1,0.5]];portConstraint=eastwest;top=0;left=0;right=0;bottom=1;" parent="EqAMS2uMT9Ca-llQSgbX-157" vertex="1">
          <mxGeometry y="30" width="180" height="30" as="geometry" />
        </mxCell>
        <mxCell id="EqAMS2uMT9Ca-llQSgbX-159" value="PK" style="shape=partialRectangle;connectable=0;fillColor=none;top=0;left=0;bottom=0;right=0;fontStyle=1;overflow=hidden;whiteSpace=wrap;html=1;" parent="EqAMS2uMT9Ca-llQSgbX-158" vertex="1">
          <mxGeometry width="30" height="30" as="geometry">
            <mxRectangle width="30" height="30" as="alternateBounds" />
          </mxGeometry>
        </mxCell>
        <mxCell id="EqAMS2uMT9Ca-llQSgbX-160" value="id" style="shape=partialRectangle;connectable=0;fillColor=none;top=0;left=0;bottom=0;right=0;align=left;spacingLeft=6;fontStyle=5;overflow=hidden;whiteSpace=wrap;html=1;" parent="EqAMS2uMT9Ca-llQSgbX-158" vertex="1">
          <mxGeometry x="30" width="150" height="30" as="geometry">
            <mxRectangle width="150" height="30" as="alternateBounds" />
          </mxGeometry>
        </mxCell>
        <mxCell id="EqAMS2uMT9Ca-llQSgbX-161" value="" style="shape=tableRow;horizontal=0;startSize=0;swimlaneHead=0;swimlaneBody=0;fillColor=none;collapsible=0;dropTarget=0;points=[[0,0.5],[1,0.5]];portConstraint=eastwest;top=0;left=0;right=0;bottom=0;" parent="EqAMS2uMT9Ca-llQSgbX-157" vertex="1">
          <mxGeometry y="60" width="180" height="30" as="geometry" />
        </mxCell>
        <mxCell id="EqAMS2uMT9Ca-llQSgbX-162" value="" style="shape=partialRectangle;connectable=0;fillColor=none;top=0;left=0;bottom=0;right=0;editable=1;overflow=hidden;whiteSpace=wrap;html=1;" parent="EqAMS2uMT9Ca-llQSgbX-161" vertex="1">
          <mxGeometry width="30" height="30" as="geometry">
            <mxRectangle width="30" height="30" as="alternateBounds" />
          </mxGeometry>
        </mxCell>
        <mxCell id="EqAMS2uMT9Ca-llQSgbX-163" value="fullname" style="shape=partialRectangle;connectable=0;fillColor=none;top=0;left=0;bottom=0;right=0;align=left;spacingLeft=6;overflow=hidden;whiteSpace=wrap;html=1;" parent="EqAMS2uMT9Ca-llQSgbX-161" vertex="1">
          <mxGeometry x="30" width="150" height="30" as="geometry">
            <mxRectangle width="150" height="30" as="alternateBounds" />
          </mxGeometry>
        </mxCell>
        <mxCell id="EqAMS2uMT9Ca-llQSgbX-164" value="" style="shape=tableRow;horizontal=0;startSize=0;swimlaneHead=0;swimlaneBody=0;fillColor=none;collapsible=0;dropTarget=0;points=[[0,0.5],[1,0.5]];portConstraint=eastwest;top=0;left=0;right=0;bottom=0;" parent="EqAMS2uMT9Ca-llQSgbX-157" vertex="1">
          <mxGeometry y="90" width="180" height="30" as="geometry" />
        </mxCell>
        <mxCell id="EqAMS2uMT9Ca-llQSgbX-165" value="" style="shape=partialRectangle;connectable=0;fillColor=none;top=0;left=0;bottom=0;right=0;editable=1;overflow=hidden;whiteSpace=wrap;html=1;" parent="EqAMS2uMT9Ca-llQSgbX-164" vertex="1">
          <mxGeometry width="30" height="30" as="geometry">
            <mxRectangle width="30" height="30" as="alternateBounds" />
          </mxGeometry>
        </mxCell>
        <mxCell id="EqAMS2uMT9Ca-llQSgbX-166" value="amount" style="shape=partialRectangle;connectable=0;fillColor=none;top=0;left=0;bottom=0;right=0;align=left;spacingLeft=6;overflow=hidden;whiteSpace=wrap;html=1;" parent="EqAMS2uMT9Ca-llQSgbX-164" vertex="1">
          <mxGeometry x="30" width="150" height="30" as="geometry">
            <mxRectangle width="150" height="30" as="alternateBounds" />
          </mxGeometry>
        </mxCell>
        <mxCell id="EqAMS2uMT9Ca-llQSgbX-167" value="" style="shape=tableRow;horizontal=0;startSize=0;swimlaneHead=0;swimlaneBody=0;fillColor=none;collapsible=0;dropTarget=0;points=[[0,0.5],[1,0.5]];portConstraint=eastwest;top=0;left=0;right=0;bottom=0;" parent="EqAMS2uMT9Ca-llQSgbX-157" vertex="1">
          <mxGeometry y="120" width="180" height="40" as="geometry" />
        </mxCell>
        <mxCell id="EqAMS2uMT9Ca-llQSgbX-168" value="" style="shape=partialRectangle;connectable=0;fillColor=none;top=0;left=0;bottom=0;right=0;editable=1;overflow=hidden;whiteSpace=wrap;html=1;" parent="EqAMS2uMT9Ca-llQSgbX-167" vertex="1">
          <mxGeometry width="30" height="40" as="geometry">
            <mxRectangle width="30" height="40" as="alternateBounds" />
          </mxGeometry>
        </mxCell>
        <mxCell id="EqAMS2uMT9Ca-llQSgbX-169" value="method" style="shape=partialRectangle;connectable=0;fillColor=none;top=0;left=0;bottom=0;right=0;align=left;spacingLeft=6;overflow=hidden;whiteSpace=wrap;html=1;" parent="EqAMS2uMT9Ca-llQSgbX-167" vertex="1">
          <mxGeometry x="30" width="150" height="40" as="geometry">
            <mxRectangle width="150" height="40" as="alternateBounds" />
          </mxGeometry>
        </mxCell>
        <mxCell id="EqAMS2uMT9Ca-llQSgbX-170" value="" style="shape=tableRow;horizontal=0;startSize=0;swimlaneHead=0;swimlaneBody=0;fillColor=none;collapsible=0;dropTarget=0;points=[[0,0.5],[1,0.5]];portConstraint=eastwest;top=0;left=0;right=0;bottom=0;" parent="EqAMS2uMT9Ca-llQSgbX-157" vertex="1">
          <mxGeometry y="160" width="180" height="40" as="geometry" />
        </mxCell>
        <mxCell id="EqAMS2uMT9Ca-llQSgbX-171" value="" style="shape=partialRectangle;connectable=0;fillColor=none;top=0;left=0;bottom=0;right=0;editable=1;overflow=hidden;whiteSpace=wrap;html=1;" parent="EqAMS2uMT9Ca-llQSgbX-170" vertex="1">
          <mxGeometry width="30" height="40" as="geometry">
            <mxRectangle width="30" height="40" as="alternateBounds" />
          </mxGeometry>
        </mxCell>
        <mxCell id="EqAMS2uMT9Ca-llQSgbX-172" value="date" style="shape=partialRectangle;connectable=0;fillColor=none;top=0;left=0;bottom=0;right=0;align=left;spacingLeft=6;overflow=hidden;whiteSpace=wrap;html=1;" parent="EqAMS2uMT9Ca-llQSgbX-170" vertex="1">
          <mxGeometry x="30" width="150" height="40" as="geometry">
            <mxRectangle width="150" height="40" as="alternateBounds" />
          </mxGeometry>
        </mxCell>
        <mxCell id="EqAMS2uMT9Ca-llQSgbX-173" value="" style="shape=tableRow;horizontal=0;startSize=0;swimlaneHead=0;swimlaneBody=0;fillColor=none;collapsible=0;dropTarget=0;points=[[0,0.5],[1,0.5]];portConstraint=eastwest;top=0;left=0;right=0;bottom=0;" parent="EqAMS2uMT9Ca-llQSgbX-157" vertex="1">
          <mxGeometry y="200" width="180" height="40" as="geometry" />
        </mxCell>
        <mxCell id="EqAMS2uMT9Ca-llQSgbX-174" value="" style="shape=partialRectangle;connectable=0;fillColor=none;top=0;left=0;bottom=0;right=0;editable=1;overflow=hidden;whiteSpace=wrap;html=1;" parent="EqAMS2uMT9Ca-llQSgbX-173" vertex="1">
          <mxGeometry width="30" height="40" as="geometry">
            <mxRectangle width="30" height="40" as="alternateBounds" />
          </mxGeometry>
        </mxCell>
        <mxCell id="EqAMS2uMT9Ca-llQSgbX-175" value="email" style="shape=partialRectangle;connectable=0;fillColor=none;top=0;left=0;bottom=0;right=0;align=left;spacingLeft=6;overflow=hidden;whiteSpace=wrap;html=1;" parent="EqAMS2uMT9Ca-llQSgbX-173" vertex="1">
          <mxGeometry x="30" width="150" height="40" as="geometry">
            <mxRectangle width="150" height="40" as="alternateBounds" />
          </mxGeometry>
        </mxCell>
        <mxCell id="EqAMS2uMT9Ca-llQSgbX-176" value="" style="shape=tableRow;horizontal=0;startSize=0;swimlaneHead=0;swimlaneBody=0;fillColor=none;collapsible=0;dropTarget=0;points=[[0,0.5],[1,0.5]];portConstraint=eastwest;top=0;left=0;right=0;bottom=0;" parent="EqAMS2uMT9Ca-llQSgbX-157" vertex="1">
          <mxGeometry y="240" width="180" height="40" as="geometry" />
        </mxCell>
        <mxCell id="EqAMS2uMT9Ca-llQSgbX-177" value="" style="shape=partialRectangle;connectable=0;fillColor=none;top=0;left=0;bottom=0;right=0;editable=1;overflow=hidden;whiteSpace=wrap;html=1;" parent="EqAMS2uMT9Ca-llQSgbX-176" vertex="1">
          <mxGeometry width="30" height="40" as="geometry">
            <mxRectangle width="30" height="40" as="alternateBounds" />
          </mxGeometry>
        </mxCell>
        <mxCell id="EqAMS2uMT9Ca-llQSgbX-178" value="phone" style="shape=partialRectangle;connectable=0;fillColor=none;top=0;left=0;bottom=0;right=0;align=left;spacingLeft=6;overflow=hidden;whiteSpace=wrap;html=1;" parent="EqAMS2uMT9Ca-llQSgbX-176" vertex="1">
          <mxGeometry x="30" width="150" height="40" as="geometry">
            <mxRectangle width="150" height="40" as="alternateBounds" />
          </mxGeometry>
        </mxCell>
        <mxCell id="EqAMS2uMT9Ca-llQSgbX-179" value="" style="shape=tableRow;horizontal=0;startSize=0;swimlaneHead=0;swimlaneBody=0;fillColor=none;collapsible=0;dropTarget=0;points=[[0,0.5],[1,0.5]];portConstraint=eastwest;top=0;left=0;right=0;bottom=0;" parent="EqAMS2uMT9Ca-llQSgbX-157" vertex="1">
          <mxGeometry y="280" width="180" height="40" as="geometry" />
        </mxCell>
        <mxCell id="EqAMS2uMT9Ca-llQSgbX-180" value="" style="shape=partialRectangle;connectable=0;fillColor=none;top=0;left=0;bottom=0;right=0;editable=1;overflow=hidden;whiteSpace=wrap;html=1;" parent="EqAMS2uMT9Ca-llQSgbX-179" vertex="1">
          <mxGeometry width="30" height="40" as="geometry">
            <mxRectangle width="30" height="40" as="alternateBounds" />
          </mxGeometry>
        </mxCell>
        <mxCell id="EqAMS2uMT9Ca-llQSgbX-181" value="address" style="shape=partialRectangle;connectable=0;fillColor=none;top=0;left=0;bottom=0;right=0;align=left;spacingLeft=6;overflow=hidden;whiteSpace=wrap;html=1;" parent="EqAMS2uMT9Ca-llQSgbX-179" vertex="1">
          <mxGeometry x="30" width="150" height="40" as="geometry">
            <mxRectangle width="150" height="40" as="alternateBounds" />
          </mxGeometry>
        </mxCell>
        <mxCell id="EqAMS2uMT9Ca-llQSgbX-182" value="" style="shape=tableRow;horizontal=0;startSize=0;swimlaneHead=0;swimlaneBody=0;fillColor=none;collapsible=0;dropTarget=0;points=[[0,0.5],[1,0.5]];portConstraint=eastwest;top=0;left=0;right=0;bottom=0;" parent="EqAMS2uMT9Ca-llQSgbX-157" vertex="1">
          <mxGeometry y="320" width="180" height="40" as="geometry" />
        </mxCell>
        <mxCell id="EqAMS2uMT9Ca-llQSgbX-183" value="FK" style="shape=partialRectangle;connectable=0;fillColor=none;top=0;left=0;bottom=0;right=0;editable=1;overflow=hidden;whiteSpace=wrap;html=1;" parent="EqAMS2uMT9Ca-llQSgbX-182" vertex="1">
          <mxGeometry width="30" height="40" as="geometry">
            <mxRectangle width="30" height="40" as="alternateBounds" />
          </mxGeometry>
        </mxCell>
        <mxCell id="EqAMS2uMT9Ca-llQSgbX-184" value="users" style="shape=partialRectangle;connectable=0;fillColor=none;top=0;left=0;bottom=0;right=0;align=left;spacingLeft=6;overflow=hidden;whiteSpace=wrap;html=1;" parent="EqAMS2uMT9Ca-llQSgbX-182" vertex="1">
          <mxGeometry x="30" width="150" height="40" as="geometry">
            <mxRectangle width="150" height="40" as="alternateBounds" />
          </mxGeometry>
        </mxCell>
        <mxCell id="EqAMS2uMT9Ca-llQSgbX-188" value="FoodDiscounts" style="shape=table;startSize=30;container=1;collapsible=1;childLayout=tableLayout;fixedRows=1;rowLines=0;fontStyle=1;align=center;resizeLast=1;html=1;" parent="1" vertex="1">
          <mxGeometry x="880" y="210" width="180" height="90" as="geometry" />
        </mxCell>
        <mxCell id="EqAMS2uMT9Ca-llQSgbX-192" value="" style="shape=tableRow;horizontal=0;startSize=0;swimlaneHead=0;swimlaneBody=0;fillColor=none;collapsible=0;dropTarget=0;points=[[0,0.5],[1,0.5]];portConstraint=eastwest;top=0;left=0;right=0;bottom=0;" parent="EqAMS2uMT9Ca-llQSgbX-188" vertex="1">
          <mxGeometry y="30" width="180" height="30" as="geometry" />
        </mxCell>
        <mxCell id="EqAMS2uMT9Ca-llQSgbX-193" value="PK" style="shape=partialRectangle;connectable=0;fillColor=none;top=0;left=0;bottom=0;right=0;editable=1;overflow=hidden;whiteSpace=wrap;html=1;fontStyle=1" parent="EqAMS2uMT9Ca-llQSgbX-192" vertex="1">
          <mxGeometry width="30" height="30" as="geometry">
            <mxRectangle width="30" height="30" as="alternateBounds" />
          </mxGeometry>
        </mxCell>
        <mxCell id="EqAMS2uMT9Ca-llQSgbX-194" value="foods" style="shape=partialRectangle;connectable=0;fillColor=none;top=0;left=0;bottom=0;right=0;align=left;spacingLeft=6;overflow=hidden;whiteSpace=wrap;html=1;fontStyle=1" parent="EqAMS2uMT9Ca-llQSgbX-192" vertex="1">
          <mxGeometry x="30" width="150" height="30" as="geometry">
            <mxRectangle width="150" height="30" as="alternateBounds" />
          </mxGeometry>
        </mxCell>
        <mxCell id="EqAMS2uMT9Ca-llQSgbX-195" value="" style="shape=tableRow;horizontal=0;startSize=0;swimlaneHead=0;swimlaneBody=0;fillColor=none;collapsible=0;dropTarget=0;points=[[0,0.5],[1,0.5]];portConstraint=eastwest;top=0;left=0;right=0;bottom=0;" parent="EqAMS2uMT9Ca-llQSgbX-188" vertex="1">
          <mxGeometry y="60" width="180" height="30" as="geometry" />
        </mxCell>
        <mxCell id="EqAMS2uMT9Ca-llQSgbX-196" value="PK" style="shape=partialRectangle;connectable=0;fillColor=none;top=0;left=0;bottom=0;right=0;editable=1;overflow=hidden;whiteSpace=wrap;html=1;fontStyle=1" parent="EqAMS2uMT9Ca-llQSgbX-195" vertex="1">
          <mxGeometry width="30" height="30" as="geometry">
            <mxRectangle width="30" height="30" as="alternateBounds" />
          </mxGeometry>
        </mxCell>
        <mxCell id="EqAMS2uMT9Ca-llQSgbX-197" value="discounts" style="shape=partialRectangle;connectable=0;fillColor=none;top=0;left=0;bottom=0;right=0;align=left;spacingLeft=6;overflow=hidden;whiteSpace=wrap;html=1;fontStyle=1" parent="EqAMS2uMT9Ca-llQSgbX-195" vertex="1">
          <mxGeometry x="30" width="150" height="30" as="geometry">
            <mxRectangle width="150" height="30" as="alternateBounds" />
          </mxGeometry>
        </mxCell>
        <mxCell id="EqAMS2uMT9Ca-llQSgbX-201" value="" style="edgeStyle=orthogonalEdgeStyle;fontSize=12;html=1;endArrow=ERoneToMany;startArrow=ERmandOne;rounded=0;exitX=1;exitY=0.5;exitDx=0;exitDy=0;entryX=1;entryY=0.5;entryDx=0;entryDy=0;" parent="1" source="EqAMS2uMT9Ca-llQSgbX-94" target="EqAMS2uMT9Ca-llQSgbX-195" edge="1">
          <mxGeometry width="100" height="100" relative="1" as="geometry">
            <mxPoint x="870" y="380" as="sourcePoint" />
            <mxPoint x="970" y="500" as="targetPoint" />
            <Array as="points">
              <mxPoint x="1120" y="45" />
              <mxPoint x="1120" y="285" />
            </Array>
          </mxGeometry>
        </mxCell>
        <mxCell id="EqAMS2uMT9Ca-llQSgbX-202" value="" style="edgeStyle=orthogonalEdgeStyle;fontSize=12;html=1;endArrow=ERoneToMany;startArrow=ERmandOne;rounded=0;exitX=1;exitY=0.5;exitDx=0;exitDy=0;entryX=0;entryY=0.5;entryDx=0;entryDy=0;" parent="1" source="EqAMS2uMT9Ca-llQSgbX-42" target="EqAMS2uMT9Ca-llQSgbX-192" edge="1">
          <mxGeometry width="100" height="100" relative="1" as="geometry">
            <mxPoint x="850" y="225" as="sourcePoint" />
            <mxPoint x="850" y="495" as="targetPoint" />
            <Array as="points">
              <mxPoint x="850" y="135" />
              <mxPoint x="850" y="255" />
            </Array>
          </mxGeometry>
        </mxCell>
        <mxCell id="EqAMS2uMT9Ca-llQSgbX-203" value="Authorities" style="shape=table;startSize=30;container=1;collapsible=1;childLayout=tableLayout;fixedRows=1;rowLines=0;fontStyle=1;align=center;resizeLast=1;html=1;" parent="1" vertex="1">
          <mxGeometry width="180" height="120" as="geometry" />
        </mxCell>
        <mxCell id="EqAMS2uMT9Ca-llQSgbX-204" value="" style="shape=tableRow;horizontal=0;startSize=0;swimlaneHead=0;swimlaneBody=0;fillColor=none;collapsible=0;dropTarget=0;points=[[0,0.5],[1,0.5]];portConstraint=eastwest;top=0;left=0;right=0;bottom=1;" parent="EqAMS2uMT9Ca-llQSgbX-203" vertex="1">
          <mxGeometry y="30" width="180" height="30" as="geometry" />
        </mxCell>
        <mxCell id="EqAMS2uMT9Ca-llQSgbX-205" value="PK" style="shape=partialRectangle;connectable=0;fillColor=none;top=0;left=0;bottom=0;right=0;fontStyle=1;overflow=hidden;whiteSpace=wrap;html=1;" parent="EqAMS2uMT9Ca-llQSgbX-204" vertex="1">
          <mxGeometry width="30" height="30" as="geometry">
            <mxRectangle width="30" height="30" as="alternateBounds" />
          </mxGeometry>
        </mxCell>
        <mxCell id="EqAMS2uMT9Ca-llQSgbX-206" value="id" style="shape=partialRectangle;connectable=0;fillColor=none;top=0;left=0;bottom=0;right=0;align=left;spacingLeft=6;fontStyle=5;overflow=hidden;whiteSpace=wrap;html=1;" parent="EqAMS2uMT9Ca-llQSgbX-204" vertex="1">
          <mxGeometry x="30" width="150" height="30" as="geometry">
            <mxRectangle width="150" height="30" as="alternateBounds" />
          </mxGeometry>
        </mxCell>
        <mxCell id="EqAMS2uMT9Ca-llQSgbX-207" value="" style="shape=tableRow;horizontal=0;startSize=0;swimlaneHead=0;swimlaneBody=0;fillColor=none;collapsible=0;dropTarget=0;points=[[0,0.5],[1,0.5]];portConstraint=eastwest;top=0;left=0;right=0;bottom=0;" parent="EqAMS2uMT9Ca-llQSgbX-203" vertex="1">
          <mxGeometry y="60" width="180" height="30" as="geometry" />
        </mxCell>
        <mxCell id="EqAMS2uMT9Ca-llQSgbX-208" value="FK" style="shape=partialRectangle;connectable=0;fillColor=none;top=0;left=0;bottom=0;right=0;editable=1;overflow=hidden;whiteSpace=wrap;html=1;" parent="EqAMS2uMT9Ca-llQSgbX-207" vertex="1">
          <mxGeometry width="30" height="30" as="geometry">
            <mxRectangle width="30" height="30" as="alternateBounds" />
          </mxGeometry>
        </mxCell>
        <mxCell id="EqAMS2uMT9Ca-llQSgbX-209" value="users" style="shape=partialRectangle;connectable=0;fillColor=none;top=0;left=0;bottom=0;right=0;align=left;spacingLeft=6;overflow=hidden;whiteSpace=wrap;html=1;" parent="EqAMS2uMT9Ca-llQSgbX-207" vertex="1">
          <mxGeometry x="30" width="150" height="30" as="geometry">
            <mxRectangle width="150" height="30" as="alternateBounds" />
          </mxGeometry>
        </mxCell>
        <mxCell id="EqAMS2uMT9Ca-llQSgbX-210" value="" style="shape=tableRow;horizontal=0;startSize=0;swimlaneHead=0;swimlaneBody=0;fillColor=none;collapsible=0;dropTarget=0;points=[[0,0.5],[1,0.5]];portConstraint=eastwest;top=0;left=0;right=0;bottom=0;" parent="EqAMS2uMT9Ca-llQSgbX-203" vertex="1">
          <mxGeometry y="90" width="180" height="30" as="geometry" />
        </mxCell>
        <mxCell id="EqAMS2uMT9Ca-llQSgbX-211" value="FK" style="shape=partialRectangle;connectable=0;fillColor=none;top=0;left=0;bottom=0;right=0;editable=1;overflow=hidden;whiteSpace=wrap;html=1;" parent="EqAMS2uMT9Ca-llQSgbX-210" vertex="1">
          <mxGeometry width="30" height="30" as="geometry">
            <mxRectangle width="30" height="30" as="alternateBounds" />
          </mxGeometry>
        </mxCell>
        <mxCell id="EqAMS2uMT9Ca-llQSgbX-212" value="roles" style="shape=partialRectangle;connectable=0;fillColor=none;top=0;left=0;bottom=0;right=0;align=left;spacingLeft=6;overflow=hidden;whiteSpace=wrap;html=1;" parent="EqAMS2uMT9Ca-llQSgbX-210" vertex="1">
          <mxGeometry x="30" width="150" height="30" as="geometry">
            <mxRectangle width="150" height="30" as="alternateBounds" />
          </mxGeometry>
        </mxCell>
        <mxCell id="EqAMS2uMT9Ca-llQSgbX-213" value="" style="edgeStyle=orthogonalEdgeStyle;fontSize=12;html=1;endArrow=ERoneToMany;startArrow=ERmandOne;rounded=0;exitX=0;exitY=0.5;exitDx=0;exitDy=0;entryX=1;entryY=0.5;entryDx=0;entryDy=0;" parent="1" source="EqAMS2uMT9Ca-llQSgbX-15" target="EqAMS2uMT9Ca-llQSgbX-207" edge="1">
          <mxGeometry width="100" height="100" relative="1" as="geometry">
            <mxPoint x="190" y="115" as="sourcePoint" />
            <mxPoint x="290" y="235" as="targetPoint" />
            <Array as="points">
              <mxPoint x="230" y="45" />
              <mxPoint x="230" y="75" />
            </Array>
          </mxGeometry>
        </mxCell>
        <mxCell id="EqAMS2uMT9Ca-llQSgbX-215" value="" style="edgeStyle=orthogonalEdgeStyle;fontSize=12;html=1;endArrow=ERoneToMany;startArrow=ERmandOne;rounded=0;exitX=1;exitY=0.5;exitDx=0;exitDy=0;entryX=0;entryY=0.5;entryDx=0;entryDy=0;" parent="1" source="EqAMS2uMT9Ca-llQSgbX-2" target="EqAMS2uMT9Ca-llQSgbX-210" edge="1">
          <mxGeometry width="100" height="100" relative="1" as="geometry">
            <mxPoint x="290" y="55" as="sourcePoint" />
            <mxPoint x="-40" y="40" as="targetPoint" />
            <Array as="points">
              <mxPoint x="-40" y="65" />
              <mxPoint x="-40" y="105" />
            </Array>
          </mxGeometry>
        </mxCell>
        <mxCell id="EqAMS2uMT9Ca-llQSgbX-216" value="" style="edgeStyle=orthogonalEdgeStyle;fontSize=12;html=1;endArrow=ERoneToMany;startArrow=ERmandOne;rounded=0;exitX=0;exitY=0.5;exitDx=0;exitDy=0;entryX=1;entryY=0.5;entryDx=0;entryDy=0;" parent="1" source="EqAMS2uMT9Ca-llQSgbX-15" target="EqAMS2uMT9Ca-llQSgbX-138" edge="1">
          <mxGeometry width="100" height="100" relative="1" as="geometry">
            <mxPoint x="290" y="180" as="sourcePoint" />
            <mxPoint x="190" y="210" as="targetPoint" />
            <Array as="points">
              <mxPoint x="230" y="45" />
              <mxPoint x="230" y="350" />
            </Array>
          </mxGeometry>
        </mxCell>
        <mxCell id="EqAMS2uMT9Ca-llQSgbX-219" value="" style="edgeStyle=orthogonalEdgeStyle;fontSize=12;html=1;endArrow=ERoneToMany;startArrow=ERmandOne;rounded=0;exitX=0;exitY=0.5;exitDx=0;exitDy=0;entryX=0;entryY=0.5;entryDx=0;entryDy=0;" parent="1" source="EqAMS2uMT9Ca-llQSgbX-68" target="EqAMS2uMT9Ca-llQSgbX-90" edge="1">
          <mxGeometry width="100" height="100" relative="1" as="geometry">
            <mxPoint x="290" y="320" as="sourcePoint" />
            <mxPoint x="190" y="400" as="targetPoint" />
            <Array as="points">
              <mxPoint x="-40" y="216" />
              <mxPoint x="-40" y="580" />
            </Array>
          </mxGeometry>
        </mxCell>
        <mxCell id="EqAMS2uMT9Ca-llQSgbX-220" value="" style="edgeStyle=orthogonalEdgeStyle;fontSize=12;html=1;endArrow=ERoneToMany;startArrow=ERmandOne;rounded=0;exitX=1;exitY=0.5;exitDx=0;exitDy=0;entryX=1;entryY=0.5;entryDx=0;entryDy=0;" parent="1" source="EqAMS2uMT9Ca-llQSgbX-15" target="EqAMS2uMT9Ca-llQSgbX-182" edge="1">
          <mxGeometry width="100" height="100" relative="1" as="geometry">
            <mxPoint x="590" y="544.94" as="sourcePoint" />
            <mxPoint x="490" y="624.94" as="targetPoint" />
            <Array as="points">
              <mxPoint x="480" y="45" />
              <mxPoint x="480" y="687" />
              <mxPoint x="460" y="687" />
            </Array>
          </mxGeometry>
        </mxCell>
        <mxCell id="EqAMS2uMT9Ca-llQSgbX-221" value="" style="edgeStyle=orthogonalEdgeStyle;fontSize=12;html=1;endArrow=ERoneToMany;startArrow=ERmandOne;rounded=0;exitX=1;exitY=0.5;exitDx=0;exitDy=0;entryX=1;entryY=0.5;entryDx=0;entryDy=0;" parent="1" source="EqAMS2uMT9Ca-llQSgbX-42" target="EqAMS2uMT9Ca-llQSgbX-185" edge="1">
          <mxGeometry width="100" height="100" relative="1" as="geometry">
            <mxPoint x="290" y="320" as="sourcePoint" />
            <mxPoint x="190" y="400" as="targetPoint" />
            <Array as="points">
              <mxPoint x="830" y="135" />
              <mxPoint x="830" y="1140" />
              <mxPoint x="240" y="1140" />
              <mxPoint x="240" y="610" />
            </Array>
          </mxGeometry>
        </mxCell>
        <mxCell id="SgVYNU1JQTBj0jb24-10-20" value="Carts" style="shape=table;startSize=30;container=1;collapsible=1;childLayout=tableLayout;fixedRows=1;rowLines=0;fontStyle=1;align=center;resizeLast=1;html=1;" parent="1" vertex="1">
          <mxGeometry x="280" y="750" width="180" height="360" as="geometry" />
        </mxCell>
        <mxCell id="SgVYNU1JQTBj0jb24-10-21" value="" style="shape=tableRow;horizontal=0;startSize=0;swimlaneHead=0;swimlaneBody=0;fillColor=none;collapsible=0;dropTarget=0;points=[[0,0.5],[1,0.5]];portConstraint=eastwest;top=0;left=0;right=0;bottom=1;" parent="SgVYNU1JQTBj0jb24-10-20" vertex="1">
          <mxGeometry y="30" width="180" height="30" as="geometry" />
        </mxCell>
        <mxCell id="SgVYNU1JQTBj0jb24-10-22" value="PK" style="shape=partialRectangle;connectable=0;fillColor=none;top=0;left=0;bottom=0;right=0;fontStyle=1;overflow=hidden;whiteSpace=wrap;html=1;" parent="SgVYNU1JQTBj0jb24-10-21" vertex="1">
          <mxGeometry width="30" height="30" as="geometry">
            <mxRectangle width="30" height="30" as="alternateBounds" />
          </mxGeometry>
        </mxCell>
        <mxCell id="SgVYNU1JQTBj0jb24-10-23" value="id" style="shape=partialRectangle;connectable=0;fillColor=none;top=0;left=0;bottom=0;right=0;align=left;spacingLeft=6;fontStyle=5;overflow=hidden;whiteSpace=wrap;html=1;" parent="SgVYNU1JQTBj0jb24-10-21" vertex="1">
          <mxGeometry x="30" width="150" height="30" as="geometry">
            <mxRectangle width="150" height="30" as="alternateBounds" />
          </mxGeometry>
        </mxCell>
        <mxCell id="SgVYNU1JQTBj0jb24-10-24" value="" style="shape=tableRow;horizontal=0;startSize=0;swimlaneHead=0;swimlaneBody=0;fillColor=none;collapsible=0;dropTarget=0;points=[[0,0.5],[1,0.5]];portConstraint=eastwest;top=0;left=0;right=0;bottom=0;" parent="SgVYNU1JQTBj0jb24-10-20" vertex="1">
          <mxGeometry y="60" width="180" height="30" as="geometry" />
        </mxCell>
        <mxCell id="SgVYNU1JQTBj0jb24-10-25" value="" style="shape=partialRectangle;connectable=0;fillColor=none;top=0;left=0;bottom=0;right=0;editable=1;overflow=hidden;whiteSpace=wrap;html=1;" parent="SgVYNU1JQTBj0jb24-10-24" vertex="1">
          <mxGeometry width="30" height="30" as="geometry">
            <mxRectangle width="30" height="30" as="alternateBounds" />
          </mxGeometry>
        </mxCell>
        <mxCell id="SgVYNU1JQTBj0jb24-10-26" value="name" style="shape=partialRectangle;connectable=0;fillColor=none;top=0;left=0;bottom=0;right=0;align=left;spacingLeft=6;overflow=hidden;whiteSpace=wrap;html=1;" parent="SgVYNU1JQTBj0jb24-10-24" vertex="1">
          <mxGeometry x="30" width="150" height="30" as="geometry">
            <mxRectangle width="150" height="30" as="alternateBounds" />
          </mxGeometry>
        </mxCell>
        <mxCell id="SgVYNU1JQTBj0jb24-10-27" value="" style="shape=tableRow;horizontal=0;startSize=0;swimlaneHead=0;swimlaneBody=0;fillColor=none;collapsible=0;dropTarget=0;points=[[0,0.5],[1,0.5]];portConstraint=eastwest;top=0;left=0;right=0;bottom=0;" parent="SgVYNU1JQTBj0jb24-10-20" vertex="1">
          <mxGeometry y="90" width="180" height="30" as="geometry" />
        </mxCell>
        <mxCell id="SgVYNU1JQTBj0jb24-10-28" value="" style="shape=partialRectangle;connectable=0;fillColor=none;top=0;left=0;bottom=0;right=0;editable=1;overflow=hidden;whiteSpace=wrap;html=1;" parent="SgVYNU1JQTBj0jb24-10-27" vertex="1">
          <mxGeometry width="30" height="30" as="geometry">
            <mxRectangle width="30" height="30" as="alternateBounds" />
          </mxGeometry>
        </mxCell>
        <mxCell id="SgVYNU1JQTBj0jb24-10-29" value="price" style="shape=partialRectangle;connectable=0;fillColor=none;top=0;left=0;bottom=0;right=0;align=left;spacingLeft=6;overflow=hidden;whiteSpace=wrap;html=1;" parent="SgVYNU1JQTBj0jb24-10-27" vertex="1">
          <mxGeometry x="30" width="150" height="30" as="geometry">
            <mxRectangle width="150" height="30" as="alternateBounds" />
          </mxGeometry>
        </mxCell>
        <mxCell id="SgVYNU1JQTBj0jb24-10-30" value="" style="shape=tableRow;horizontal=0;startSize=0;swimlaneHead=0;swimlaneBody=0;fillColor=none;collapsible=0;dropTarget=0;points=[[0,0.5],[1,0.5]];portConstraint=eastwest;top=0;left=0;right=0;bottom=0;" parent="SgVYNU1JQTBj0jb24-10-20" vertex="1">
          <mxGeometry y="120" width="180" height="40" as="geometry" />
        </mxCell>
        <mxCell id="SgVYNU1JQTBj0jb24-10-31" value="" style="shape=partialRectangle;connectable=0;fillColor=none;top=0;left=0;bottom=0;right=0;editable=1;overflow=hidden;whiteSpace=wrap;html=1;" parent="SgVYNU1JQTBj0jb24-10-30" vertex="1">
          <mxGeometry width="30" height="40" as="geometry">
            <mxRectangle width="30" height="40" as="alternateBounds" />
          </mxGeometry>
        </mxCell>
        <mxCell id="SgVYNU1JQTBj0jb24-10-32" value="quantity" style="shape=partialRectangle;connectable=0;fillColor=none;top=0;left=0;bottom=0;right=0;align=left;spacingLeft=6;overflow=hidden;whiteSpace=wrap;html=1;" parent="SgVYNU1JQTBj0jb24-10-30" vertex="1">
          <mxGeometry x="30" width="150" height="40" as="geometry">
            <mxRectangle width="150" height="40" as="alternateBounds" />
          </mxGeometry>
        </mxCell>
        <mxCell id="SgVYNU1JQTBj0jb24-10-39" value="" style="shape=tableRow;horizontal=0;startSize=0;swimlaneHead=0;swimlaneBody=0;fillColor=none;collapsible=0;dropTarget=0;points=[[0,0.5],[1,0.5]];portConstraint=eastwest;top=0;left=0;right=0;bottom=0;" parent="SgVYNU1JQTBj0jb24-10-20" vertex="1">
          <mxGeometry y="160" width="180" height="40" as="geometry" />
        </mxCell>
        <mxCell id="SgVYNU1JQTBj0jb24-10-40" value="" style="shape=partialRectangle;connectable=0;fillColor=none;top=0;left=0;bottom=0;right=0;editable=1;overflow=hidden;whiteSpace=wrap;html=1;" parent="SgVYNU1JQTBj0jb24-10-39" vertex="1">
          <mxGeometry width="30" height="40" as="geometry">
            <mxRectangle width="30" height="40" as="alternateBounds" />
          </mxGeometry>
        </mxCell>
        <mxCell id="SgVYNU1JQTBj0jb24-10-41" value="total" style="shape=partialRectangle;connectable=0;fillColor=none;top=0;left=0;bottom=0;right=0;align=left;spacingLeft=6;overflow=hidden;whiteSpace=wrap;html=1;" parent="SgVYNU1JQTBj0jb24-10-39" vertex="1">
          <mxGeometry x="30" width="150" height="40" as="geometry">
            <mxRectangle width="150" height="40" as="alternateBounds" />
          </mxGeometry>
        </mxCell>
        <mxCell id="SgVYNU1JQTBj0jb24-10-42" value="" style="shape=tableRow;horizontal=0;startSize=0;swimlaneHead=0;swimlaneBody=0;fillColor=none;collapsible=0;dropTarget=0;points=[[0,0.5],[1,0.5]];portConstraint=eastwest;top=0;left=0;right=0;bottom=0;" parent="SgVYNU1JQTBj0jb24-10-20" vertex="1">
          <mxGeometry y="200" width="180" height="40" as="geometry" />
        </mxCell>
        <mxCell id="SgVYNU1JQTBj0jb24-10-43" value="" style="shape=partialRectangle;connectable=0;fillColor=none;top=0;left=0;bottom=0;right=0;editable=1;overflow=hidden;whiteSpace=wrap;html=1;" parent="SgVYNU1JQTBj0jb24-10-42" vertex="1">
          <mxGeometry width="30" height="40" as="geometry">
            <mxRectangle width="30" height="40" as="alternateBounds" />
          </mxGeometry>
        </mxCell>
        <mxCell id="SgVYNU1JQTBj0jb24-10-44" value="photo" style="shape=partialRectangle;connectable=0;fillColor=none;top=0;left=0;bottom=0;right=0;align=left;spacingLeft=6;overflow=hidden;whiteSpace=wrap;html=1;" parent="SgVYNU1JQTBj0jb24-10-42" vertex="1">
          <mxGeometry x="30" width="150" height="40" as="geometry">
            <mxRectangle width="150" height="40" as="alternateBounds" />
          </mxGeometry>
        </mxCell>
        <mxCell id="SgVYNU1JQTBj0jb24-10-45" value="" style="shape=tableRow;horizontal=0;startSize=0;swimlaneHead=0;swimlaneBody=0;fillColor=none;collapsible=0;dropTarget=0;points=[[0,0.5],[1,0.5]];portConstraint=eastwest;top=0;left=0;right=0;bottom=0;" parent="SgVYNU1JQTBj0jb24-10-20" vertex="1">
          <mxGeometry y="240" width="180" height="40" as="geometry" />
        </mxCell>
        <mxCell id="SgVYNU1JQTBj0jb24-10-46" value="" style="shape=partialRectangle;connectable=0;fillColor=none;top=0;left=0;bottom=0;right=0;editable=1;overflow=hidden;whiteSpace=wrap;html=1;" parent="SgVYNU1JQTBj0jb24-10-45" vertex="1">
          <mxGeometry width="30" height="40" as="geometry">
            <mxRectangle width="30" height="40" as="alternateBounds" />
          </mxGeometry>
        </mxCell>
        <mxCell id="SgVYNU1JQTBj0jb24-10-47" value="date" style="shape=partialRectangle;connectable=0;fillColor=none;top=0;left=0;bottom=0;right=0;align=left;spacingLeft=6;overflow=hidden;whiteSpace=wrap;html=1;" parent="SgVYNU1JQTBj0jb24-10-45" vertex="1">
          <mxGeometry x="30" width="150" height="40" as="geometry">
            <mxRectangle width="150" height="40" as="alternateBounds" />
          </mxGeometry>
        </mxCell>
        <mxCell id="SgVYNU1JQTBj0jb24-10-33" value="" style="shape=tableRow;horizontal=0;startSize=0;swimlaneHead=0;swimlaneBody=0;fillColor=none;collapsible=0;dropTarget=0;points=[[0,0.5],[1,0.5]];portConstraint=eastwest;top=0;left=0;right=0;bottom=0;" parent="SgVYNU1JQTBj0jb24-10-20" vertex="1">
          <mxGeometry y="280" width="180" height="40" as="geometry" />
        </mxCell>
        <mxCell id="SgVYNU1JQTBj0jb24-10-34" value="FK" style="shape=partialRectangle;connectable=0;fillColor=none;top=0;left=0;bottom=0;right=0;editable=1;overflow=hidden;whiteSpace=wrap;html=1;" parent="SgVYNU1JQTBj0jb24-10-33" vertex="1">
          <mxGeometry width="30" height="40" as="geometry">
            <mxRectangle width="30" height="40" as="alternateBounds" />
          </mxGeometry>
        </mxCell>
        <mxCell id="SgVYNU1JQTBj0jb24-10-35" value="users" style="shape=partialRectangle;connectable=0;fillColor=none;top=0;left=0;bottom=0;right=0;align=left;spacingLeft=6;overflow=hidden;whiteSpace=wrap;html=1;" parent="SgVYNU1JQTBj0jb24-10-33" vertex="1">
          <mxGeometry x="30" width="150" height="40" as="geometry">
            <mxRectangle width="150" height="40" as="alternateBounds" />
          </mxGeometry>
        </mxCell>
        <mxCell id="SgVYNU1JQTBj0jb24-10-36" value="" style="shape=tableRow;horizontal=0;startSize=0;swimlaneHead=0;swimlaneBody=0;fillColor=none;collapsible=0;dropTarget=0;points=[[0,0.5],[1,0.5]];portConstraint=eastwest;top=0;left=0;right=0;bottom=0;" parent="SgVYNU1JQTBj0jb24-10-20" vertex="1">
          <mxGeometry y="320" width="180" height="40" as="geometry" />
        </mxCell>
        <mxCell id="SgVYNU1JQTBj0jb24-10-37" value="FK" style="shape=partialRectangle;connectable=0;fillColor=none;top=0;left=0;bottom=0;right=0;editable=1;overflow=hidden;whiteSpace=wrap;html=1;" parent="SgVYNU1JQTBj0jb24-10-36" vertex="1">
          <mxGeometry width="30" height="40" as="geometry">
            <mxRectangle width="30" height="40" as="alternateBounds" />
          </mxGeometry>
        </mxCell>
        <mxCell id="SgVYNU1JQTBj0jb24-10-38" value="foods" style="shape=partialRectangle;connectable=0;fillColor=none;top=0;left=0;bottom=0;right=0;align=left;spacingLeft=6;overflow=hidden;whiteSpace=wrap;html=1;" parent="SgVYNU1JQTBj0jb24-10-36" vertex="1">
          <mxGeometry x="30" width="150" height="40" as="geometry">
            <mxRectangle width="150" height="40" as="alternateBounds" />
          </mxGeometry>
        </mxCell>
        <mxCell id="SgVYNU1JQTBj0jb24-10-56" value="" style="edgeStyle=orthogonalEdgeStyle;fontSize=12;html=1;endArrow=ERoneToMany;startArrow=ERmandOne;rounded=0;exitX=1;exitY=0.5;exitDx=0;exitDy=0;entryX=1;entryY=0.5;entryDx=0;entryDy=0;" parent="1" source="EqAMS2uMT9Ca-llQSgbX-15" target="SgVYNU1JQTBj0jb24-10-33" edge="1">
          <mxGeometry width="100" height="100" relative="1" as="geometry">
            <mxPoint x="690" y="670" as="sourcePoint" />
            <mxPoint x="590" y="775" as="targetPoint" />
            <Array as="points">
              <mxPoint x="510" y="45" />
              <mxPoint x="510" y="1050" />
            </Array>
          </mxGeometry>
        </mxCell>
        <mxCell id="SgVYNU1JQTBj0jb24-10-57" value="" style="edgeStyle=orthogonalEdgeStyle;fontSize=12;html=1;endArrow=ERoneToMany;startArrow=ERmandOne;rounded=0;exitX=0;exitY=0.5;exitDx=0;exitDy=0;entryX=1;entryY=0.5;entryDx=0;entryDy=0;" parent="1" source="EqAMS2uMT9Ca-llQSgbX-42" target="SgVYNU1JQTBj0jb24-10-36" edge="1">
          <mxGeometry width="100" height="100" relative="1" as="geometry">
            <mxPoint x="670" y="720" as="sourcePoint" />
            <mxPoint x="570" y="825" as="targetPoint" />
            <Array as="points">
              <mxPoint x="560" y="135" />
              <mxPoint x="560" y="1090" />
            </Array>
          </mxGeometry>
        </mxCell>
        <mxCell id="SgVYNU1JQTBj0jb24-10-72" value="" style="edgeStyle=orthogonalEdgeStyle;fontSize=12;html=1;endArrow=ERoneToMany;startArrow=ERmandOne;rounded=0;entryX=1;entryY=0.5;entryDx=0;entryDy=0;exitX=0;exitY=0.5;exitDx=0;exitDy=0;" parent="1" source="EqAMS2uMT9Ca-llQSgbX-158" target="EqAMS2uMT9Ca-llQSgbX-141" edge="1">
          <mxGeometry width="100" height="100" relative="1" as="geometry">
            <mxPoint x="200" y="440" as="sourcePoint" />
            <mxPoint x="270" y="510" as="targetPoint" />
            <Array as="points">
              <mxPoint x="230" y="390" />
            </Array>
          </mxGeometry>
        </mxCell>
      </root>
    </mxGraphModel>
  </diagram>
  <diagram id="KulrkMAnKrXaeLk7efgW" name="Use Case">
    <mxGraphModel dx="1909" dy="1013" grid="1" gridSize="10" guides="1" tooltips="1" connect="1" arrows="1" fold="1" page="1" pageScale="1" pageWidth="827" pageHeight="1169" math="0" shadow="0">
      <root>
        <mxCell id="0" />
        <mxCell id="1" parent="0" />
        <mxCell id="HA8SBBAe0YR0NEjKKlrU-1" value="" style="whiteSpace=wrap;html=1;aspect=fixed;" vertex="1" parent="1">
          <mxGeometry x="370" y="250" width="80" height="80" as="geometry" />
        </mxCell>
        <mxCell id="HA8SBBAe0YR0NEjKKlrU-2" value="" style="whiteSpace=wrap;html=1;" vertex="1" parent="1">
          <mxGeometry x="100" y="32.5" width="810" height="1385" as="geometry" />
        </mxCell>
        <mxCell id="HA8SBBAe0YR0NEjKKlrU-88" style="edgeStyle=orthogonalEdgeStyle;rounded=0;orthogonalLoop=1;jettySize=auto;html=1;entryX=0;entryY=0.5;entryDx=0;entryDy=0;" edge="1" parent="1" source="HA8SBBAe0YR0NEjKKlrU-3" target="HA8SBBAe0YR0NEjKKlrU-5">
          <mxGeometry relative="1" as="geometry" />
        </mxCell>
        <mxCell id="HA8SBBAe0YR0NEjKKlrU-3" value="Admin" style="shape=umlActor;verticalLabelPosition=bottom;verticalAlign=top;html=1;" vertex="1" parent="1">
          <mxGeometry x="10" y="710" width="40" height="80" as="geometry" />
        </mxCell>
        <mxCell id="HA8SBBAe0YR0NEjKKlrU-86" style="edgeStyle=orthogonalEdgeStyle;rounded=0;orthogonalLoop=1;jettySize=auto;html=1;entryX=0;entryY=0.5;entryDx=0;entryDy=0;" edge="1" parent="1" source="HA8SBBAe0YR0NEjKKlrU-5" target="HA8SBBAe0YR0NEjKKlrU-6">
          <mxGeometry relative="1" as="geometry" />
        </mxCell>
        <mxCell id="HA8SBBAe0YR0NEjKKlrU-87" value="include" style="edgeLabel;html=1;align=center;verticalAlign=middle;resizable=0;points=[];" vertex="1" connectable="0" parent="HA8SBBAe0YR0NEjKKlrU-86">
          <mxGeometry x="-0.0913" relative="1" as="geometry">
            <mxPoint as="offset" />
          </mxGeometry>
        </mxCell>
        <mxCell id="HA8SBBAe0YR0NEjKKlrU-5" value="Sign Up" style="ellipse;whiteSpace=wrap;html=1;" vertex="1" parent="1">
          <mxGeometry x="140" y="725" width="130" height="50" as="geometry" />
        </mxCell>
        <mxCell id="HA8SBBAe0YR0NEjKKlrU-71" style="edgeStyle=orthogonalEdgeStyle;rounded=0;orthogonalLoop=1;jettySize=auto;html=1;entryX=0;entryY=0.5;entryDx=0;entryDy=0;" edge="1" parent="1" source="HA8SBBAe0YR0NEjKKlrU-6" target="HA8SBBAe0YR0NEjKKlrU-29">
          <mxGeometry relative="1" as="geometry">
            <Array as="points">
              <mxPoint x="520" y="750" />
              <mxPoint x="520" y="625" />
            </Array>
          </mxGeometry>
        </mxCell>
        <mxCell id="HA8SBBAe0YR0NEjKKlrU-73" style="edgeStyle=orthogonalEdgeStyle;rounded=0;orthogonalLoop=1;jettySize=auto;html=1;entryX=0;entryY=0.5;entryDx=0;entryDy=0;" edge="1" parent="1" source="HA8SBBAe0YR0NEjKKlrU-6" target="HA8SBBAe0YR0NEjKKlrU-41">
          <mxGeometry relative="1" as="geometry">
            <Array as="points">
              <mxPoint x="520" y="750" />
              <mxPoint x="520" y="885" />
            </Array>
          </mxGeometry>
        </mxCell>
        <mxCell id="HA8SBBAe0YR0NEjKKlrU-74" style="edgeStyle=orthogonalEdgeStyle;rounded=0;orthogonalLoop=1;jettySize=auto;html=1;entryX=0;entryY=0.5;entryDx=0;entryDy=0;" edge="1" parent="1" source="HA8SBBAe0YR0NEjKKlrU-6" target="HA8SBBAe0YR0NEjKKlrU-19">
          <mxGeometry relative="1" as="geometry">
            <Array as="points">
              <mxPoint x="520" y="750" />
              <mxPoint x="520" y="365" />
            </Array>
          </mxGeometry>
        </mxCell>
        <mxCell id="HA8SBBAe0YR0NEjKKlrU-75" style="edgeStyle=orthogonalEdgeStyle;rounded=0;orthogonalLoop=1;jettySize=auto;html=1;entryX=0;entryY=0.5;entryDx=0;entryDy=0;" edge="1" parent="1" source="HA8SBBAe0YR0NEjKKlrU-6" target="HA8SBBAe0YR0NEjKKlrU-8">
          <mxGeometry relative="1" as="geometry">
            <Array as="points">
              <mxPoint x="520" y="750" />
              <mxPoint x="520" y="140" />
            </Array>
          </mxGeometry>
        </mxCell>
        <mxCell id="HA8SBBAe0YR0NEjKKlrU-76" style="edgeStyle=orthogonalEdgeStyle;rounded=0;orthogonalLoop=1;jettySize=auto;html=1;entryX=0;entryY=0.5;entryDx=0;entryDy=0;" edge="1" parent="1" source="HA8SBBAe0YR0NEjKKlrU-6" target="HA8SBBAe0YR0NEjKKlrU-54">
          <mxGeometry relative="1" as="geometry">
            <Array as="points">
              <mxPoint x="520" y="750" />
              <mxPoint x="520" y="1085" />
            </Array>
          </mxGeometry>
        </mxCell>
        <mxCell id="HA8SBBAe0YR0NEjKKlrU-77" style="edgeStyle=orthogonalEdgeStyle;rounded=0;orthogonalLoop=1;jettySize=auto;html=1;entryX=0;entryY=0.5;entryDx=0;entryDy=0;" edge="1" parent="1" source="HA8SBBAe0YR0NEjKKlrU-6" target="HA8SBBAe0YR0NEjKKlrU-59">
          <mxGeometry relative="1" as="geometry">
            <Array as="points">
              <mxPoint x="520" y="750" />
              <mxPoint x="520" y="1275" />
            </Array>
          </mxGeometry>
        </mxCell>
        <mxCell id="HA8SBBAe0YR0NEjKKlrU-79" value="include" style="edgeLabel;html=1;align=center;verticalAlign=middle;resizable=0;points=[];" vertex="1" connectable="0" parent="HA8SBBAe0YR0NEjKKlrU-77">
          <mxGeometry x="-0.9087" relative="1" as="geometry">
            <mxPoint as="offset" />
          </mxGeometry>
        </mxCell>
        <mxCell id="HA8SBBAe0YR0NEjKKlrU-80" style="edgeStyle=orthogonalEdgeStyle;rounded=0;orthogonalLoop=1;jettySize=auto;html=1;entryX=0.5;entryY=0;entryDx=0;entryDy=0;dashed=1;" edge="1" parent="1" source="HA8SBBAe0YR0NEjKKlrU-6" target="HA8SBBAe0YR0NEjKKlrU-9">
          <mxGeometry relative="1" as="geometry" />
        </mxCell>
        <mxCell id="HA8SBBAe0YR0NEjKKlrU-85" value="extend" style="edgeLabel;html=1;align=center;verticalAlign=middle;resizable=0;points=[];" vertex="1" connectable="0" parent="HA8SBBAe0YR0NEjKKlrU-80">
          <mxGeometry x="-0.0802" y="-2" relative="1" as="geometry">
            <mxPoint y="-1" as="offset" />
          </mxGeometry>
        </mxCell>
        <mxCell id="HA8SBBAe0YR0NEjKKlrU-81" style="edgeStyle=orthogonalEdgeStyle;rounded=0;orthogonalLoop=1;jettySize=auto;html=1;entryX=0.5;entryY=1;entryDx=0;entryDy=0;dashed=1;" edge="1" parent="1" source="HA8SBBAe0YR0NEjKKlrU-6" target="HA8SBBAe0YR0NEjKKlrU-7">
          <mxGeometry relative="1" as="geometry" />
        </mxCell>
        <mxCell id="HA8SBBAe0YR0NEjKKlrU-84" value="extend" style="edgeLabel;html=1;align=center;verticalAlign=middle;resizable=0;points=[];" vertex="1" connectable="0" parent="HA8SBBAe0YR0NEjKKlrU-81">
          <mxGeometry x="0.0695" relative="1" as="geometry">
            <mxPoint y="4" as="offset" />
          </mxGeometry>
        </mxCell>
        <mxCell id="HA8SBBAe0YR0NEjKKlrU-6" value="Sign In" style="ellipse;whiteSpace=wrap;html=1;" vertex="1" parent="1">
          <mxGeometry x="330" y="725" width="130" height="50" as="geometry" />
        </mxCell>
        <mxCell id="HA8SBBAe0YR0NEjKKlrU-7" value="Forget Password" style="ellipse;whiteSpace=wrap;html=1;" vertex="1" parent="1">
          <mxGeometry x="330" y="620" width="130" height="50" as="geometry" />
        </mxCell>
        <mxCell id="HA8SBBAe0YR0NEjKKlrU-34" style="edgeStyle=orthogonalEdgeStyle;rounded=0;orthogonalLoop=1;jettySize=auto;html=1;entryX=0;entryY=0.5;entryDx=0;entryDy=0;" edge="1" parent="1" source="HA8SBBAe0YR0NEjKKlrU-8" target="HA8SBBAe0YR0NEjKKlrU-16">
          <mxGeometry relative="1" as="geometry" />
        </mxCell>
        <mxCell id="HA8SBBAe0YR0NEjKKlrU-35" style="edgeStyle=orthogonalEdgeStyle;rounded=0;orthogonalLoop=1;jettySize=auto;html=1;" edge="1" parent="1" source="HA8SBBAe0YR0NEjKKlrU-8" target="HA8SBBAe0YR0NEjKKlrU-17">
          <mxGeometry relative="1" as="geometry" />
        </mxCell>
        <mxCell id="HA8SBBAe0YR0NEjKKlrU-36" style="edgeStyle=orthogonalEdgeStyle;rounded=0;orthogonalLoop=1;jettySize=auto;html=1;entryX=0;entryY=0.5;entryDx=0;entryDy=0;" edge="1" parent="1" source="HA8SBBAe0YR0NEjKKlrU-8" target="HA8SBBAe0YR0NEjKKlrU-18">
          <mxGeometry relative="1" as="geometry" />
        </mxCell>
        <mxCell id="HA8SBBAe0YR0NEjKKlrU-8" value="User Management" style="ellipse;whiteSpace=wrap;html=1;" vertex="1" parent="1">
          <mxGeometry x="550" y="115" width="130" height="50" as="geometry" />
        </mxCell>
        <mxCell id="HA8SBBAe0YR0NEjKKlrU-9" value="Google" style="ellipse;whiteSpace=wrap;html=1;" vertex="1" parent="1">
          <mxGeometry x="330" y="830" width="130" height="50" as="geometry" />
        </mxCell>
        <mxCell id="HA8SBBAe0YR0NEjKKlrU-16" value="View User" style="ellipse;whiteSpace=wrap;html=1;" vertex="1" parent="1">
          <mxGeometry x="760" y="50" width="130" height="50" as="geometry" />
        </mxCell>
        <mxCell id="HA8SBBAe0YR0NEjKKlrU-17" value="Update User" style="ellipse;whiteSpace=wrap;html=1;" vertex="1" parent="1">
          <mxGeometry x="760" y="115" width="130" height="50" as="geometry" />
        </mxCell>
        <mxCell id="HA8SBBAe0YR0NEjKKlrU-18" value="Delete User" style="ellipse;whiteSpace=wrap;html=1;" vertex="1" parent="1">
          <mxGeometry x="760" y="180" width="130" height="50" as="geometry" />
        </mxCell>
        <mxCell id="HA8SBBAe0YR0NEjKKlrU-37" style="edgeStyle=orthogonalEdgeStyle;rounded=0;orthogonalLoop=1;jettySize=auto;html=1;entryX=0;entryY=0.5;entryDx=0;entryDy=0;" edge="1" parent="1" source="HA8SBBAe0YR0NEjKKlrU-19" target="HA8SBBAe0YR0NEjKKlrU-23">
          <mxGeometry relative="1" as="geometry" />
        </mxCell>
        <mxCell id="HA8SBBAe0YR0NEjKKlrU-38" style="edgeStyle=orthogonalEdgeStyle;rounded=0;orthogonalLoop=1;jettySize=auto;html=1;entryX=0;entryY=0.5;entryDx=0;entryDy=0;" edge="1" parent="1" source="HA8SBBAe0YR0NEjKKlrU-19" target="HA8SBBAe0YR0NEjKKlrU-20">
          <mxGeometry relative="1" as="geometry" />
        </mxCell>
        <mxCell id="HA8SBBAe0YR0NEjKKlrU-39" style="edgeStyle=orthogonalEdgeStyle;rounded=0;orthogonalLoop=1;jettySize=auto;html=1;entryX=0;entryY=0.5;entryDx=0;entryDy=0;" edge="1" parent="1" source="HA8SBBAe0YR0NEjKKlrU-19" target="HA8SBBAe0YR0NEjKKlrU-21">
          <mxGeometry relative="1" as="geometry" />
        </mxCell>
        <mxCell id="HA8SBBAe0YR0NEjKKlrU-40" style="edgeStyle=orthogonalEdgeStyle;rounded=0;orthogonalLoop=1;jettySize=auto;html=1;entryX=0;entryY=0.5;entryDx=0;entryDy=0;" edge="1" parent="1" source="HA8SBBAe0YR0NEjKKlrU-19" target="HA8SBBAe0YR0NEjKKlrU-22">
          <mxGeometry relative="1" as="geometry" />
        </mxCell>
        <mxCell id="HA8SBBAe0YR0NEjKKlrU-19" value="Category Management" style="ellipse;whiteSpace=wrap;html=1;" vertex="1" parent="1">
          <mxGeometry x="550" y="340" width="130" height="50" as="geometry" />
        </mxCell>
        <mxCell id="HA8SBBAe0YR0NEjKKlrU-20" value="View Category" style="ellipse;whiteSpace=wrap;html=1;" vertex="1" parent="1">
          <mxGeometry x="760" y="310" width="130" height="50" as="geometry" />
        </mxCell>
        <mxCell id="HA8SBBAe0YR0NEjKKlrU-21" value="Update Category" style="ellipse;whiteSpace=wrap;html=1;" vertex="1" parent="1">
          <mxGeometry x="760" y="375" width="130" height="50" as="geometry" />
        </mxCell>
        <mxCell id="HA8SBBAe0YR0NEjKKlrU-22" value="Delete Category" style="ellipse;whiteSpace=wrap;html=1;" vertex="1" parent="1">
          <mxGeometry x="760" y="440" width="130" height="50" as="geometry" />
        </mxCell>
        <mxCell id="HA8SBBAe0YR0NEjKKlrU-23" value="Create Category" style="ellipse;whiteSpace=wrap;html=1;" vertex="1" parent="1">
          <mxGeometry x="760" y="250" width="130" height="50" as="geometry" />
        </mxCell>
        <mxCell id="HA8SBBAe0YR0NEjKKlrU-50" style="edgeStyle=orthogonalEdgeStyle;rounded=0;orthogonalLoop=1;jettySize=auto;html=1;entryX=0;entryY=0.5;entryDx=0;entryDy=0;" edge="1" parent="1" source="HA8SBBAe0YR0NEjKKlrU-29" target="HA8SBBAe0YR0NEjKKlrU-33">
          <mxGeometry relative="1" as="geometry" />
        </mxCell>
        <mxCell id="HA8SBBAe0YR0NEjKKlrU-51" style="edgeStyle=orthogonalEdgeStyle;rounded=0;orthogonalLoop=1;jettySize=auto;html=1;entryX=0;entryY=0.5;entryDx=0;entryDy=0;" edge="1" parent="1" source="HA8SBBAe0YR0NEjKKlrU-29" target="HA8SBBAe0YR0NEjKKlrU-30">
          <mxGeometry relative="1" as="geometry" />
        </mxCell>
        <mxCell id="HA8SBBAe0YR0NEjKKlrU-52" style="edgeStyle=orthogonalEdgeStyle;rounded=0;orthogonalLoop=1;jettySize=auto;html=1;entryX=0;entryY=0.5;entryDx=0;entryDy=0;" edge="1" parent="1" source="HA8SBBAe0YR0NEjKKlrU-29" target="HA8SBBAe0YR0NEjKKlrU-31">
          <mxGeometry relative="1" as="geometry" />
        </mxCell>
        <mxCell id="HA8SBBAe0YR0NEjKKlrU-53" style="edgeStyle=orthogonalEdgeStyle;rounded=0;orthogonalLoop=1;jettySize=auto;html=1;entryX=0;entryY=0.5;entryDx=0;entryDy=0;" edge="1" parent="1" source="HA8SBBAe0YR0NEjKKlrU-29" target="HA8SBBAe0YR0NEjKKlrU-32">
          <mxGeometry relative="1" as="geometry" />
        </mxCell>
        <mxCell id="HA8SBBAe0YR0NEjKKlrU-29" value="Food Management" style="ellipse;whiteSpace=wrap;html=1;" vertex="1" parent="1">
          <mxGeometry x="550" y="600" width="130" height="50" as="geometry" />
        </mxCell>
        <mxCell id="HA8SBBAe0YR0NEjKKlrU-30" value="View Food" style="ellipse;whiteSpace=wrap;html=1;" vertex="1" parent="1">
          <mxGeometry x="760" y="570" width="130" height="50" as="geometry" />
        </mxCell>
        <mxCell id="HA8SBBAe0YR0NEjKKlrU-31" value="Update Food" style="ellipse;whiteSpace=wrap;html=1;" vertex="1" parent="1">
          <mxGeometry x="760" y="635" width="130" height="50" as="geometry" />
        </mxCell>
        <mxCell id="HA8SBBAe0YR0NEjKKlrU-32" value="Delete Food" style="ellipse;whiteSpace=wrap;html=1;" vertex="1" parent="1">
          <mxGeometry x="760" y="700" width="130" height="50" as="geometry" />
        </mxCell>
        <mxCell id="HA8SBBAe0YR0NEjKKlrU-33" value="Create Food" style="ellipse;whiteSpace=wrap;html=1;" vertex="1" parent="1">
          <mxGeometry x="760" y="510" width="130" height="50" as="geometry" />
        </mxCell>
        <mxCell id="HA8SBBAe0YR0NEjKKlrU-46" style="edgeStyle=orthogonalEdgeStyle;rounded=0;orthogonalLoop=1;jettySize=auto;html=1;entryX=0;entryY=0.5;entryDx=0;entryDy=0;" edge="1" parent="1" source="HA8SBBAe0YR0NEjKKlrU-41" target="HA8SBBAe0YR0NEjKKlrU-45">
          <mxGeometry relative="1" as="geometry" />
        </mxCell>
        <mxCell id="HA8SBBAe0YR0NEjKKlrU-47" style="edgeStyle=orthogonalEdgeStyle;rounded=0;orthogonalLoop=1;jettySize=auto;html=1;" edge="1" parent="1" source="HA8SBBAe0YR0NEjKKlrU-41" target="HA8SBBAe0YR0NEjKKlrU-42">
          <mxGeometry relative="1" as="geometry" />
        </mxCell>
        <mxCell id="HA8SBBAe0YR0NEjKKlrU-48" style="edgeStyle=orthogonalEdgeStyle;rounded=0;orthogonalLoop=1;jettySize=auto;html=1;entryX=0;entryY=0.5;entryDx=0;entryDy=0;" edge="1" parent="1" source="HA8SBBAe0YR0NEjKKlrU-41" target="HA8SBBAe0YR0NEjKKlrU-43">
          <mxGeometry relative="1" as="geometry" />
        </mxCell>
        <mxCell id="HA8SBBAe0YR0NEjKKlrU-49" style="edgeStyle=orthogonalEdgeStyle;rounded=0;orthogonalLoop=1;jettySize=auto;html=1;entryX=0;entryY=0.5;entryDx=0;entryDy=0;" edge="1" parent="1" source="HA8SBBAe0YR0NEjKKlrU-41" target="HA8SBBAe0YR0NEjKKlrU-44">
          <mxGeometry relative="1" as="geometry" />
        </mxCell>
        <mxCell id="HA8SBBAe0YR0NEjKKlrU-41" value="Discount Management" style="ellipse;whiteSpace=wrap;html=1;" vertex="1" parent="1">
          <mxGeometry x="550" y="860" width="130" height="50" as="geometry" />
        </mxCell>
        <mxCell id="HA8SBBAe0YR0NEjKKlrU-42" value="View Discount" style="ellipse;whiteSpace=wrap;html=1;" vertex="1" parent="1">
          <mxGeometry x="760" y="830" width="130" height="50" as="geometry" />
        </mxCell>
        <mxCell id="HA8SBBAe0YR0NEjKKlrU-43" value="Update Discount" style="ellipse;whiteSpace=wrap;html=1;" vertex="1" parent="1">
          <mxGeometry x="760" y="895" width="130" height="50" as="geometry" />
        </mxCell>
        <mxCell id="HA8SBBAe0YR0NEjKKlrU-44" value="Delete Discount" style="ellipse;whiteSpace=wrap;html=1;" vertex="1" parent="1">
          <mxGeometry x="760" y="960" width="130" height="50" as="geometry" />
        </mxCell>
        <mxCell id="HA8SBBAe0YR0NEjKKlrU-45" value="Create Discount" style="ellipse;whiteSpace=wrap;html=1;" vertex="1" parent="1">
          <mxGeometry x="760" y="770" width="130" height="50" as="geometry" />
        </mxCell>
        <mxCell id="HA8SBBAe0YR0NEjKKlrU-57" style="edgeStyle=orthogonalEdgeStyle;rounded=0;orthogonalLoop=1;jettySize=auto;html=1;entryX=0;entryY=0.5;entryDx=0;entryDy=0;" edge="1" parent="1" source="HA8SBBAe0YR0NEjKKlrU-54" target="HA8SBBAe0YR0NEjKKlrU-55">
          <mxGeometry relative="1" as="geometry" />
        </mxCell>
        <mxCell id="HA8SBBAe0YR0NEjKKlrU-58" style="edgeStyle=orthogonalEdgeStyle;rounded=0;orthogonalLoop=1;jettySize=auto;html=1;entryX=0;entryY=0.5;entryDx=0;entryDy=0;" edge="1" parent="1" source="HA8SBBAe0YR0NEjKKlrU-54" target="HA8SBBAe0YR0NEjKKlrU-56">
          <mxGeometry relative="1" as="geometry" />
        </mxCell>
        <mxCell id="HA8SBBAe0YR0NEjKKlrU-54" value="Order Management" style="ellipse;whiteSpace=wrap;html=1;" vertex="1" parent="1">
          <mxGeometry x="550" y="1060" width="130" height="50" as="geometry" />
        </mxCell>
        <mxCell id="HA8SBBAe0YR0NEjKKlrU-55" value="View Order" style="ellipse;whiteSpace=wrap;html=1;" vertex="1" parent="1">
          <mxGeometry x="760" y="1025" width="130" height="50" as="geometry" />
        </mxCell>
        <mxCell id="HA8SBBAe0YR0NEjKKlrU-56" value="Update Discount" style="ellipse;whiteSpace=wrap;html=1;" vertex="1" parent="1">
          <mxGeometry x="760" y="1090" width="130" height="50" as="geometry" />
        </mxCell>
        <mxCell id="HA8SBBAe0YR0NEjKKlrU-65" style="edgeStyle=orthogonalEdgeStyle;rounded=0;orthogonalLoop=1;jettySize=auto;html=1;entryX=0;entryY=0.5;entryDx=0;entryDy=0;" edge="1" parent="1" source="HA8SBBAe0YR0NEjKKlrU-59" target="HA8SBBAe0YR0NEjKKlrU-63">
          <mxGeometry relative="1" as="geometry" />
        </mxCell>
        <mxCell id="HA8SBBAe0YR0NEjKKlrU-66" style="edgeStyle=orthogonalEdgeStyle;rounded=0;orthogonalLoop=1;jettySize=auto;html=1;entryX=0;entryY=0.5;entryDx=0;entryDy=0;" edge="1" parent="1" source="HA8SBBAe0YR0NEjKKlrU-59" target="HA8SBBAe0YR0NEjKKlrU-60">
          <mxGeometry relative="1" as="geometry" />
        </mxCell>
        <mxCell id="HA8SBBAe0YR0NEjKKlrU-68" style="edgeStyle=orthogonalEdgeStyle;rounded=0;orthogonalLoop=1;jettySize=auto;html=1;entryX=0;entryY=0.5;entryDx=0;entryDy=0;" edge="1" parent="1" source="HA8SBBAe0YR0NEjKKlrU-59" target="HA8SBBAe0YR0NEjKKlrU-61">
          <mxGeometry relative="1" as="geometry" />
        </mxCell>
        <mxCell id="HA8SBBAe0YR0NEjKKlrU-70" style="edgeStyle=orthogonalEdgeStyle;rounded=0;orthogonalLoop=1;jettySize=auto;html=1;entryX=0;entryY=0.5;entryDx=0;entryDy=0;" edge="1" parent="1" source="HA8SBBAe0YR0NEjKKlrU-59" target="HA8SBBAe0YR0NEjKKlrU-62">
          <mxGeometry relative="1" as="geometry" />
        </mxCell>
        <mxCell id="HA8SBBAe0YR0NEjKKlrU-59" value="Statistical" style="ellipse;whiteSpace=wrap;html=1;" vertex="1" parent="1">
          <mxGeometry x="550" y="1250" width="130" height="50" as="geometry" />
        </mxCell>
        <mxCell id="HA8SBBAe0YR0NEjKKlrU-60" value="Number of orders" style="ellipse;whiteSpace=wrap;html=1;" vertex="1" parent="1">
          <mxGeometry x="760" y="1220" width="130" height="50" as="geometry" />
        </mxCell>
        <mxCell id="HA8SBBAe0YR0NEjKKlrU-61" value="Total amount of all orders" style="ellipse;whiteSpace=wrap;html=1;" vertex="1" parent="1">
          <mxGeometry x="760" y="1285" width="130" height="50" as="geometry" />
        </mxCell>
        <mxCell id="HA8SBBAe0YR0NEjKKlrU-62" value="Total food" style="ellipse;whiteSpace=wrap;html=1;" vertex="1" parent="1">
          <mxGeometry x="760" y="1350" width="130" height="50" as="geometry" />
        </mxCell>
        <mxCell id="HA8SBBAe0YR0NEjKKlrU-63" value="Revenue statistics" style="ellipse;whiteSpace=wrap;html=1;" vertex="1" parent="1">
          <mxGeometry x="760" y="1160" width="130" height="50" as="geometry" />
        </mxCell>
        <mxCell id="HA8SBBAe0YR0NEjKKlrU-89" value="" style="whiteSpace=wrap;html=1;aspect=fixed;" vertex="1" parent="1">
          <mxGeometry x="370" y="1635" width="80" height="80" as="geometry" />
        </mxCell>
        <mxCell id="HA8SBBAe0YR0NEjKKlrU-90" value="" style="whiteSpace=wrap;html=1;" vertex="1" parent="1">
          <mxGeometry x="100" y="1417.5" width="810" height="1385" as="geometry" />
        </mxCell>
        <mxCell id="HA8SBBAe0YR0NEjKKlrU-91" style="edgeStyle=orthogonalEdgeStyle;rounded=0;orthogonalLoop=1;jettySize=auto;html=1;entryX=0;entryY=0.5;entryDx=0;entryDy=0;" edge="1" parent="1" source="HA8SBBAe0YR0NEjKKlrU-92" target="HA8SBBAe0YR0NEjKKlrU-95">
          <mxGeometry relative="1" as="geometry" />
        </mxCell>
        <mxCell id="HA8SBBAe0YR0NEjKKlrU-92" value="User" style="shape=umlActor;verticalLabelPosition=bottom;verticalAlign=top;html=1;" vertex="1" parent="1">
          <mxGeometry x="10" y="2095" width="40" height="80" as="geometry" />
        </mxCell>
        <mxCell id="HA8SBBAe0YR0NEjKKlrU-93" style="edgeStyle=orthogonalEdgeStyle;rounded=0;orthogonalLoop=1;jettySize=auto;html=1;entryX=0;entryY=0.5;entryDx=0;entryDy=0;" edge="1" parent="1" source="HA8SBBAe0YR0NEjKKlrU-95" target="HA8SBBAe0YR0NEjKKlrU-107">
          <mxGeometry relative="1" as="geometry" />
        </mxCell>
        <mxCell id="HA8SBBAe0YR0NEjKKlrU-94" value="include" style="edgeLabel;html=1;align=center;verticalAlign=middle;resizable=0;points=[];" vertex="1" connectable="0" parent="HA8SBBAe0YR0NEjKKlrU-93">
          <mxGeometry x="-0.0913" relative="1" as="geometry">
            <mxPoint as="offset" />
          </mxGeometry>
        </mxCell>
        <mxCell id="HA8SBBAe0YR0NEjKKlrU-95" value="Sign Up" style="ellipse;whiteSpace=wrap;html=1;" vertex="1" parent="1">
          <mxGeometry x="140" y="2110" width="130" height="50" as="geometry" />
        </mxCell>
        <mxCell id="HA8SBBAe0YR0NEjKKlrU-96" style="edgeStyle=orthogonalEdgeStyle;rounded=0;orthogonalLoop=1;jettySize=auto;html=1;entryX=0;entryY=0.5;entryDx=0;entryDy=0;" edge="1" parent="1" source="HA8SBBAe0YR0NEjKKlrU-107" target="HA8SBBAe0YR0NEjKKlrU-130">
          <mxGeometry relative="1" as="geometry">
            <Array as="points">
              <mxPoint x="520" y="2135" />
              <mxPoint x="520" y="2010" />
            </Array>
          </mxGeometry>
        </mxCell>
        <mxCell id="HA8SBBAe0YR0NEjKKlrU-97" style="edgeStyle=orthogonalEdgeStyle;rounded=0;orthogonalLoop=1;jettySize=auto;html=1;entryX=0;entryY=0.5;entryDx=0;entryDy=0;" edge="1" parent="1" source="HA8SBBAe0YR0NEjKKlrU-107" target="HA8SBBAe0YR0NEjKKlrU-139">
          <mxGeometry relative="1" as="geometry">
            <Array as="points">
              <mxPoint x="520" y="2135" />
              <mxPoint x="520" y="2270" />
            </Array>
          </mxGeometry>
        </mxCell>
        <mxCell id="HA8SBBAe0YR0NEjKKlrU-98" style="edgeStyle=orthogonalEdgeStyle;rounded=0;orthogonalLoop=1;jettySize=auto;html=1;entryX=0;entryY=0.5;entryDx=0;entryDy=0;" edge="1" parent="1" source="HA8SBBAe0YR0NEjKKlrU-107" target="HA8SBBAe0YR0NEjKKlrU-121">
          <mxGeometry relative="1" as="geometry">
            <Array as="points">
              <mxPoint x="520" y="2135" />
              <mxPoint x="520" y="1750" />
            </Array>
          </mxGeometry>
        </mxCell>
        <mxCell id="HA8SBBAe0YR0NEjKKlrU-99" style="edgeStyle=orthogonalEdgeStyle;rounded=0;orthogonalLoop=1;jettySize=auto;html=1;entryX=0;entryY=0.5;entryDx=0;entryDy=0;" edge="1" parent="1" source="HA8SBBAe0YR0NEjKKlrU-107" target="HA8SBBAe0YR0NEjKKlrU-112">
          <mxGeometry relative="1" as="geometry">
            <Array as="points">
              <mxPoint x="520" y="2135" />
              <mxPoint x="520" y="1525" />
            </Array>
          </mxGeometry>
        </mxCell>
        <mxCell id="HA8SBBAe0YR0NEjKKlrU-100" style="edgeStyle=orthogonalEdgeStyle;rounded=0;orthogonalLoop=1;jettySize=auto;html=1;entryX=0;entryY=0.5;entryDx=0;entryDy=0;" edge="1" parent="1" source="HA8SBBAe0YR0NEjKKlrU-107" target="HA8SBBAe0YR0NEjKKlrU-146">
          <mxGeometry relative="1" as="geometry">
            <Array as="points">
              <mxPoint x="520" y="2135" />
              <mxPoint x="520" y="2470" />
            </Array>
          </mxGeometry>
        </mxCell>
        <mxCell id="HA8SBBAe0YR0NEjKKlrU-101" style="edgeStyle=orthogonalEdgeStyle;rounded=0;orthogonalLoop=1;jettySize=auto;html=1;entryX=0;entryY=0.5;entryDx=0;entryDy=0;" edge="1" parent="1" source="HA8SBBAe0YR0NEjKKlrU-107" target="HA8SBBAe0YR0NEjKKlrU-153">
          <mxGeometry relative="1" as="geometry">
            <Array as="points">
              <mxPoint x="520" y="2135" />
              <mxPoint x="520" y="2660" />
            </Array>
          </mxGeometry>
        </mxCell>
        <mxCell id="HA8SBBAe0YR0NEjKKlrU-102" value="include" style="edgeLabel;html=1;align=center;verticalAlign=middle;resizable=0;points=[];" vertex="1" connectable="0" parent="HA8SBBAe0YR0NEjKKlrU-101">
          <mxGeometry x="-0.9087" relative="1" as="geometry">
            <mxPoint as="offset" />
          </mxGeometry>
        </mxCell>
        <mxCell id="HA8SBBAe0YR0NEjKKlrU-103" style="edgeStyle=orthogonalEdgeStyle;rounded=0;orthogonalLoop=1;jettySize=auto;html=1;entryX=0.5;entryY=0;entryDx=0;entryDy=0;dashed=1;" edge="1" parent="1" source="HA8SBBAe0YR0NEjKKlrU-107" target="HA8SBBAe0YR0NEjKKlrU-113">
          <mxGeometry relative="1" as="geometry" />
        </mxCell>
        <mxCell id="HA8SBBAe0YR0NEjKKlrU-104" value="extend" style="edgeLabel;html=1;align=center;verticalAlign=middle;resizable=0;points=[];" vertex="1" connectable="0" parent="HA8SBBAe0YR0NEjKKlrU-103">
          <mxGeometry x="-0.0802" y="-2" relative="1" as="geometry">
            <mxPoint y="-1" as="offset" />
          </mxGeometry>
        </mxCell>
        <mxCell id="HA8SBBAe0YR0NEjKKlrU-105" style="edgeStyle=orthogonalEdgeStyle;rounded=0;orthogonalLoop=1;jettySize=auto;html=1;entryX=0.5;entryY=1;entryDx=0;entryDy=0;dashed=1;" edge="1" parent="1" source="HA8SBBAe0YR0NEjKKlrU-107" target="HA8SBBAe0YR0NEjKKlrU-108">
          <mxGeometry relative="1" as="geometry" />
        </mxCell>
        <mxCell id="HA8SBBAe0YR0NEjKKlrU-106" value="extend" style="edgeLabel;html=1;align=center;verticalAlign=middle;resizable=0;points=[];" vertex="1" connectable="0" parent="HA8SBBAe0YR0NEjKKlrU-105">
          <mxGeometry x="0.0695" relative="1" as="geometry">
            <mxPoint y="4" as="offset" />
          </mxGeometry>
        </mxCell>
        <mxCell id="HA8SBBAe0YR0NEjKKlrU-107" value="Sign In" style="ellipse;whiteSpace=wrap;html=1;" vertex="1" parent="1">
          <mxGeometry x="330" y="2110" width="130" height="50" as="geometry" />
        </mxCell>
        <mxCell id="HA8SBBAe0YR0NEjKKlrU-108" value="Forget Password" style="ellipse;whiteSpace=wrap;html=1;" vertex="1" parent="1">
          <mxGeometry x="330" y="2005" width="130" height="50" as="geometry" />
        </mxCell>
        <mxCell id="HA8SBBAe0YR0NEjKKlrU-109" style="edgeStyle=orthogonalEdgeStyle;rounded=0;orthogonalLoop=1;jettySize=auto;html=1;entryX=0;entryY=0.5;entryDx=0;entryDy=0;" edge="1" parent="1" source="HA8SBBAe0YR0NEjKKlrU-112" target="HA8SBBAe0YR0NEjKKlrU-114">
          <mxGeometry relative="1" as="geometry" />
        </mxCell>
        <mxCell id="HA8SBBAe0YR0NEjKKlrU-110" style="edgeStyle=orthogonalEdgeStyle;rounded=0;orthogonalLoop=1;jettySize=auto;html=1;" edge="1" parent="1" source="HA8SBBAe0YR0NEjKKlrU-112" target="HA8SBBAe0YR0NEjKKlrU-115">
          <mxGeometry relative="1" as="geometry" />
        </mxCell>
        <mxCell id="HA8SBBAe0YR0NEjKKlrU-111" style="edgeStyle=orthogonalEdgeStyle;rounded=0;orthogonalLoop=1;jettySize=auto;html=1;entryX=0;entryY=0.5;entryDx=0;entryDy=0;" edge="1" parent="1" source="HA8SBBAe0YR0NEjKKlrU-112" target="HA8SBBAe0YR0NEjKKlrU-116">
          <mxGeometry relative="1" as="geometry" />
        </mxCell>
        <mxCell id="HA8SBBAe0YR0NEjKKlrU-112" value="User Management" style="ellipse;whiteSpace=wrap;html=1;" vertex="1" parent="1">
          <mxGeometry x="550" y="1500" width="130" height="50" as="geometry" />
        </mxCell>
        <mxCell id="HA8SBBAe0YR0NEjKKlrU-113" value="Google" style="ellipse;whiteSpace=wrap;html=1;" vertex="1" parent="1">
          <mxGeometry x="330" y="2215" width="130" height="50" as="geometry" />
        </mxCell>
        <mxCell id="HA8SBBAe0YR0NEjKKlrU-114" value="View User" style="ellipse;whiteSpace=wrap;html=1;" vertex="1" parent="1">
          <mxGeometry x="760" y="1435" width="130" height="50" as="geometry" />
        </mxCell>
        <mxCell id="HA8SBBAe0YR0NEjKKlrU-115" value="Update User" style="ellipse;whiteSpace=wrap;html=1;" vertex="1" parent="1">
          <mxGeometry x="760" y="1500" width="130" height="50" as="geometry" />
        </mxCell>
        <mxCell id="HA8SBBAe0YR0NEjKKlrU-116" value="Delete User" style="ellipse;whiteSpace=wrap;html=1;" vertex="1" parent="1">
          <mxGeometry x="760" y="1565" width="130" height="50" as="geometry" />
        </mxCell>
        <mxCell id="HA8SBBAe0YR0NEjKKlrU-117" style="edgeStyle=orthogonalEdgeStyle;rounded=0;orthogonalLoop=1;jettySize=auto;html=1;entryX=0;entryY=0.5;entryDx=0;entryDy=0;" edge="1" parent="1" source="HA8SBBAe0YR0NEjKKlrU-121" target="HA8SBBAe0YR0NEjKKlrU-125">
          <mxGeometry relative="1" as="geometry" />
        </mxCell>
        <mxCell id="HA8SBBAe0YR0NEjKKlrU-118" style="edgeStyle=orthogonalEdgeStyle;rounded=0;orthogonalLoop=1;jettySize=auto;html=1;entryX=0;entryY=0.5;entryDx=0;entryDy=0;" edge="1" parent="1" source="HA8SBBAe0YR0NEjKKlrU-121" target="HA8SBBAe0YR0NEjKKlrU-122">
          <mxGeometry relative="1" as="geometry" />
        </mxCell>
        <mxCell id="HA8SBBAe0YR0NEjKKlrU-119" style="edgeStyle=orthogonalEdgeStyle;rounded=0;orthogonalLoop=1;jettySize=auto;html=1;entryX=0;entryY=0.5;entryDx=0;entryDy=0;" edge="1" parent="1" source="HA8SBBAe0YR0NEjKKlrU-121" target="HA8SBBAe0YR0NEjKKlrU-123">
          <mxGeometry relative="1" as="geometry" />
        </mxCell>
        <mxCell id="HA8SBBAe0YR0NEjKKlrU-120" style="edgeStyle=orthogonalEdgeStyle;rounded=0;orthogonalLoop=1;jettySize=auto;html=1;entryX=0;entryY=0.5;entryDx=0;entryDy=0;" edge="1" parent="1" source="HA8SBBAe0YR0NEjKKlrU-121" target="HA8SBBAe0YR0NEjKKlrU-124">
          <mxGeometry relative="1" as="geometry" />
        </mxCell>
        <mxCell id="HA8SBBAe0YR0NEjKKlrU-121" value="Category Management" style="ellipse;whiteSpace=wrap;html=1;" vertex="1" parent="1">
          <mxGeometry x="550" y="1725" width="130" height="50" as="geometry" />
        </mxCell>
        <mxCell id="HA8SBBAe0YR0NEjKKlrU-122" value="View Category" style="ellipse;whiteSpace=wrap;html=1;" vertex="1" parent="1">
          <mxGeometry x="760" y="1695" width="130" height="50" as="geometry" />
        </mxCell>
        <mxCell id="HA8SBBAe0YR0NEjKKlrU-123" value="Update Category" style="ellipse;whiteSpace=wrap;html=1;" vertex="1" parent="1">
          <mxGeometry x="760" y="1760" width="130" height="50" as="geometry" />
        </mxCell>
        <mxCell id="HA8SBBAe0YR0NEjKKlrU-124" value="Delete Category" style="ellipse;whiteSpace=wrap;html=1;" vertex="1" parent="1">
          <mxGeometry x="760" y="1825" width="130" height="50" as="geometry" />
        </mxCell>
        <mxCell id="HA8SBBAe0YR0NEjKKlrU-125" value="Create Category" style="ellipse;whiteSpace=wrap;html=1;" vertex="1" parent="1">
          <mxGeometry x="760" y="1635" width="130" height="50" as="geometry" />
        </mxCell>
        <mxCell id="HA8SBBAe0YR0NEjKKlrU-126" style="edgeStyle=orthogonalEdgeStyle;rounded=0;orthogonalLoop=1;jettySize=auto;html=1;entryX=0;entryY=0.5;entryDx=0;entryDy=0;" edge="1" parent="1" source="HA8SBBAe0YR0NEjKKlrU-130" target="HA8SBBAe0YR0NEjKKlrU-134">
          <mxGeometry relative="1" as="geometry" />
        </mxCell>
        <mxCell id="HA8SBBAe0YR0NEjKKlrU-127" style="edgeStyle=orthogonalEdgeStyle;rounded=0;orthogonalLoop=1;jettySize=auto;html=1;entryX=0;entryY=0.5;entryDx=0;entryDy=0;" edge="1" parent="1" source="HA8SBBAe0YR0NEjKKlrU-130" target="HA8SBBAe0YR0NEjKKlrU-131">
          <mxGeometry relative="1" as="geometry" />
        </mxCell>
        <mxCell id="HA8SBBAe0YR0NEjKKlrU-128" style="edgeStyle=orthogonalEdgeStyle;rounded=0;orthogonalLoop=1;jettySize=auto;html=1;entryX=0;entryY=0.5;entryDx=0;entryDy=0;" edge="1" parent="1" source="HA8SBBAe0YR0NEjKKlrU-130" target="HA8SBBAe0YR0NEjKKlrU-132">
          <mxGeometry relative="1" as="geometry" />
        </mxCell>
        <mxCell id="HA8SBBAe0YR0NEjKKlrU-129" style="edgeStyle=orthogonalEdgeStyle;rounded=0;orthogonalLoop=1;jettySize=auto;html=1;entryX=0;entryY=0.5;entryDx=0;entryDy=0;" edge="1" parent="1" source="HA8SBBAe0YR0NEjKKlrU-130" target="HA8SBBAe0YR0NEjKKlrU-133">
          <mxGeometry relative="1" as="geometry" />
        </mxCell>
        <mxCell id="HA8SBBAe0YR0NEjKKlrU-130" value="Food Management" style="ellipse;whiteSpace=wrap;html=1;" vertex="1" parent="1">
          <mxGeometry x="550" y="1985" width="130" height="50" as="geometry" />
        </mxCell>
        <mxCell id="HA8SBBAe0YR0NEjKKlrU-131" value="View Food" style="ellipse;whiteSpace=wrap;html=1;" vertex="1" parent="1">
          <mxGeometry x="760" y="1955" width="130" height="50" as="geometry" />
        </mxCell>
        <mxCell id="HA8SBBAe0YR0NEjKKlrU-132" value="Update Food" style="ellipse;whiteSpace=wrap;html=1;" vertex="1" parent="1">
          <mxGeometry x="760" y="2020" width="130" height="50" as="geometry" />
        </mxCell>
        <mxCell id="HA8SBBAe0YR0NEjKKlrU-133" value="Delete Food" style="ellipse;whiteSpace=wrap;html=1;" vertex="1" parent="1">
          <mxGeometry x="760" y="2085" width="130" height="50" as="geometry" />
        </mxCell>
        <mxCell id="HA8SBBAe0YR0NEjKKlrU-134" value="Create Food" style="ellipse;whiteSpace=wrap;html=1;" vertex="1" parent="1">
          <mxGeometry x="760" y="1895" width="130" height="50" as="geometry" />
        </mxCell>
        <mxCell id="HA8SBBAe0YR0NEjKKlrU-135" style="edgeStyle=orthogonalEdgeStyle;rounded=0;orthogonalLoop=1;jettySize=auto;html=1;entryX=0;entryY=0.5;entryDx=0;entryDy=0;" edge="1" parent="1" source="HA8SBBAe0YR0NEjKKlrU-139" target="HA8SBBAe0YR0NEjKKlrU-143">
          <mxGeometry relative="1" as="geometry" />
        </mxCell>
        <mxCell id="HA8SBBAe0YR0NEjKKlrU-136" style="edgeStyle=orthogonalEdgeStyle;rounded=0;orthogonalLoop=1;jettySize=auto;html=1;" edge="1" parent="1" source="HA8SBBAe0YR0NEjKKlrU-139" target="HA8SBBAe0YR0NEjKKlrU-140">
          <mxGeometry relative="1" as="geometry" />
        </mxCell>
        <mxCell id="HA8SBBAe0YR0NEjKKlrU-137" style="edgeStyle=orthogonalEdgeStyle;rounded=0;orthogonalLoop=1;jettySize=auto;html=1;entryX=0;entryY=0.5;entryDx=0;entryDy=0;" edge="1" parent="1" source="HA8SBBAe0YR0NEjKKlrU-139" target="HA8SBBAe0YR0NEjKKlrU-141">
          <mxGeometry relative="1" as="geometry" />
        </mxCell>
        <mxCell id="HA8SBBAe0YR0NEjKKlrU-138" style="edgeStyle=orthogonalEdgeStyle;rounded=0;orthogonalLoop=1;jettySize=auto;html=1;entryX=0;entryY=0.5;entryDx=0;entryDy=0;" edge="1" parent="1" source="HA8SBBAe0YR0NEjKKlrU-139" target="HA8SBBAe0YR0NEjKKlrU-142">
          <mxGeometry relative="1" as="geometry" />
        </mxCell>
        <mxCell id="HA8SBBAe0YR0NEjKKlrU-139" value="Discount Management" style="ellipse;whiteSpace=wrap;html=1;" vertex="1" parent="1">
          <mxGeometry x="550" y="2245" width="130" height="50" as="geometry" />
        </mxCell>
        <mxCell id="HA8SBBAe0YR0NEjKKlrU-140" value="View Discount" style="ellipse;whiteSpace=wrap;html=1;" vertex="1" parent="1">
          <mxGeometry x="760" y="2215" width="130" height="50" as="geometry" />
        </mxCell>
        <mxCell id="HA8SBBAe0YR0NEjKKlrU-141" value="Update Discount" style="ellipse;whiteSpace=wrap;html=1;" vertex="1" parent="1">
          <mxGeometry x="760" y="2280" width="130" height="50" as="geometry" />
        </mxCell>
        <mxCell id="HA8SBBAe0YR0NEjKKlrU-142" value="Delete Discount" style="ellipse;whiteSpace=wrap;html=1;" vertex="1" parent="1">
          <mxGeometry x="760" y="2345" width="130" height="50" as="geometry" />
        </mxCell>
        <mxCell id="HA8SBBAe0YR0NEjKKlrU-143" value="Create Discount" style="ellipse;whiteSpace=wrap;html=1;" vertex="1" parent="1">
          <mxGeometry x="760" y="2155" width="130" height="50" as="geometry" />
        </mxCell>
        <mxCell id="HA8SBBAe0YR0NEjKKlrU-144" style="edgeStyle=orthogonalEdgeStyle;rounded=0;orthogonalLoop=1;jettySize=auto;html=1;entryX=0;entryY=0.5;entryDx=0;entryDy=0;" edge="1" parent="1" source="HA8SBBAe0YR0NEjKKlrU-146" target="HA8SBBAe0YR0NEjKKlrU-147">
          <mxGeometry relative="1" as="geometry" />
        </mxCell>
        <mxCell id="HA8SBBAe0YR0NEjKKlrU-145" style="edgeStyle=orthogonalEdgeStyle;rounded=0;orthogonalLoop=1;jettySize=auto;html=1;entryX=0;entryY=0.5;entryDx=0;entryDy=0;" edge="1" parent="1" source="HA8SBBAe0YR0NEjKKlrU-146" target="HA8SBBAe0YR0NEjKKlrU-148">
          <mxGeometry relative="1" as="geometry" />
        </mxCell>
        <mxCell id="HA8SBBAe0YR0NEjKKlrU-146" value="Order Management" style="ellipse;whiteSpace=wrap;html=1;" vertex="1" parent="1">
          <mxGeometry x="550" y="2445" width="130" height="50" as="geometry" />
        </mxCell>
        <mxCell id="HA8SBBAe0YR0NEjKKlrU-147" value="View Order" style="ellipse;whiteSpace=wrap;html=1;" vertex="1" parent="1">
          <mxGeometry x="760" y="2410" width="130" height="50" as="geometry" />
        </mxCell>
        <mxCell id="HA8SBBAe0YR0NEjKKlrU-148" value="Update Discount" style="ellipse;whiteSpace=wrap;html=1;" vertex="1" parent="1">
          <mxGeometry x="760" y="2475" width="130" height="50" as="geometry" />
        </mxCell>
        <mxCell id="HA8SBBAe0YR0NEjKKlrU-149" style="edgeStyle=orthogonalEdgeStyle;rounded=0;orthogonalLoop=1;jettySize=auto;html=1;entryX=0;entryY=0.5;entryDx=0;entryDy=0;" edge="1" parent="1" source="HA8SBBAe0YR0NEjKKlrU-153" target="HA8SBBAe0YR0NEjKKlrU-157">
          <mxGeometry relative="1" as="geometry" />
        </mxCell>
        <mxCell id="HA8SBBAe0YR0NEjKKlrU-150" style="edgeStyle=orthogonalEdgeStyle;rounded=0;orthogonalLoop=1;jettySize=auto;html=1;entryX=0;entryY=0.5;entryDx=0;entryDy=0;" edge="1" parent="1" source="HA8SBBAe0YR0NEjKKlrU-153" target="HA8SBBAe0YR0NEjKKlrU-154">
          <mxGeometry relative="1" as="geometry" />
        </mxCell>
        <mxCell id="HA8SBBAe0YR0NEjKKlrU-151" style="edgeStyle=orthogonalEdgeStyle;rounded=0;orthogonalLoop=1;jettySize=auto;html=1;entryX=0;entryY=0.5;entryDx=0;entryDy=0;" edge="1" parent="1" source="HA8SBBAe0YR0NEjKKlrU-153" target="HA8SBBAe0YR0NEjKKlrU-155">
          <mxGeometry relative="1" as="geometry" />
        </mxCell>
        <mxCell id="HA8SBBAe0YR0NEjKKlrU-152" style="edgeStyle=orthogonalEdgeStyle;rounded=0;orthogonalLoop=1;jettySize=auto;html=1;entryX=0;entryY=0.5;entryDx=0;entryDy=0;" edge="1" parent="1" source="HA8SBBAe0YR0NEjKKlrU-153" target="HA8SBBAe0YR0NEjKKlrU-156">
          <mxGeometry relative="1" as="geometry" />
        </mxCell>
        <mxCell id="HA8SBBAe0YR0NEjKKlrU-153" value="Statistical" style="ellipse;whiteSpace=wrap;html=1;" vertex="1" parent="1">
          <mxGeometry x="550" y="2635" width="130" height="50" as="geometry" />
        </mxCell>
        <mxCell id="HA8SBBAe0YR0NEjKKlrU-154" value="Number of orders" style="ellipse;whiteSpace=wrap;html=1;" vertex="1" parent="1">
          <mxGeometry x="760" y="2605" width="130" height="50" as="geometry" />
        </mxCell>
        <mxCell id="HA8SBBAe0YR0NEjKKlrU-155" value="Total amount of all orders" style="ellipse;whiteSpace=wrap;html=1;" vertex="1" parent="1">
          <mxGeometry x="760" y="2670" width="130" height="50" as="geometry" />
        </mxCell>
        <mxCell id="HA8SBBAe0YR0NEjKKlrU-156" value="Total food" style="ellipse;whiteSpace=wrap;html=1;" vertex="1" parent="1">
          <mxGeometry x="760" y="2735" width="130" height="50" as="geometry" />
        </mxCell>
        <mxCell id="HA8SBBAe0YR0NEjKKlrU-157" value="Revenue statistics" style="ellipse;whiteSpace=wrap;html=1;" vertex="1" parent="1">
          <mxGeometry x="760" y="2545" width="130" height="50" as="geometry" />
        </mxCell>
      </root>
    </mxGraphModel>
  </diagram>
</mxfile>
